<?xml version="1.0" encoding="UTF-8" standalone="no"?>
<!-- Created with Inkscape (http://www.inkscape.org/) -->

<svg
   xmlns:dc="http://purl.org/dc/elements/1.1/"
   xmlns:cc="http://creativecommons.org/ns#"
   xmlns:rdf="http://www.w3.org/1999/02/22-rdf-syntax-ns#"
   xmlns:svg="http://www.w3.org/2000/svg"
   xmlns="http://www.w3.org/2000/svg"
   xmlns:xlink="http://www.w3.org/1999/xlink"
   xmlns:sodipodi="http://sodipodi.sourceforge.net/DTD/sodipodi-0.dtd"
   xmlns:inkscape="http://www.inkscape.org/namespaces/inkscape"
   width="256"
   height="256"
   id="svg3453"
   version="1.1"
   inkscape:version="0.48.5 r10040"
   sodipodi:docname="logo.svg"
   inkscape:export-filename="/home/xylosper/logo48.png"
   inkscape:export-xdpi="16.879999"
   inkscape:export-ydpi="16.879999">
  <defs
     id="defs3455">
    <filter
       id="filter4665"
       inkscape:collect="always"
       color-interpolation-filters="sRGB">
      <feGaussianBlur
         id="feGaussianBlur4667"
         stdDeviation="2.16"
         inkscape:collect="always" />
    </filter>
    <linearGradient
       inkscape:collect="always"
       id="linearGradient7376">
      <stop
         style="stop-color:#e75177;stop-opacity:1"
         offset="0"
         id="stop7378" />
      <stop
         style="stop-color:#d23638;stop-opacity:1"
         offset="1"
         id="stop7380" />
    </linearGradient>
    <linearGradient
       inkscape:collect="always"
       id="linearGradient7192">
      <stop
         style="stop-color:#000000;stop-opacity:1;"
         offset="0"
         id="stop7194" />
      <stop
         style="stop-color:#000000;stop-opacity:0;"
         offset="1"
         id="stop7196" />
    </linearGradient>
    <linearGradient
       inkscape:collect="always"
       xlink:href="#linearGradient7376"
       id="linearGradient3556"
       gradientUnits="userSpaceOnUse"
       x1="703.07104"
       y1="2044.9803"
       x2="912.83197"
       y2="2131.2476"
       gradientTransform="translate(0,-0.02017438)" />
    <linearGradient
       inkscape:collect="always"
       xlink:href="#linearGradient7192"
       id="linearGradient3558"
       gradientUnits="userSpaceOnUse"
       gradientTransform="translate(18,402.89309)"
       x1="785.15625"
       y1="1688.7188"
       x2="842.78467"
       y2="1746.3472" />
    <linearGradient
       inkscape:collect="always"
       xlink:href="#linearGradient7376"
       id="linearGradient3600"
       gradientUnits="userSpaceOnUse"
       gradientTransform="translate(0,-0.02017438)"
       x1="703.07104"
       y1="2044.9803"
       x2="912.83197"
       y2="2131.2476" />
    <linearGradient
       inkscape:collect="always"
       xlink:href="#linearGradient7192"
       id="linearGradient3602"
       gradientUnits="userSpaceOnUse"
       gradientTransform="translate(18,402.89309)"
       x1="785.15625"
       y1="1688.7188"
       x2="842.78467"
       y2="1746.3472" />
  </defs>
  <sodipodi:namedview
     id="base"
     pagecolor="#ffffff"
     bordercolor="#666666"
     borderopacity="1.0"
     inkscape:pageopacity="0.0"
     inkscape:pageshadow="2"
     inkscape:zoom="0.7"
     inkscape:cx="-8.5785538"
     inkscape:cy="140.00003"
     inkscape:document-units="px"
     inkscape:current-layer="g3548"
     showgrid="false"
     inkscape:window-width="1920"
     inkscape:window-height="1025"
     inkscape:window-x="-2"
     inkscape:window-y="-3"
     inkscape:window-maximized="1" />
  <metadata
     id="metadata3458">
    <rdf:RDF>
      <cc:Work
         rdf:about="">
        <dc:format>image/svg+xml</dc:format>
        <dc:type
           rdf:resource="http://purl.org/dc/dcmitype/StillImage" />
        <dc:title></dc:title>
      </cc:Work>
    </rdf:RDF>
  </metadata>
  <g
     inkscape:label="Layer 1"
     inkscape:groupmode="layer"
     id="layer1"
     transform="translate(0,-796.36218)">
    <g
       transform="translate(-706.61038,-1175.8956)"
       id="g7384">
      <g
         id="g3500"
         transform="matrix(1.766442,0,0,1.766442,-608.00448,-1604.1196)">
        <g
           id="g3512"
           transform="matrix(1.0108541,0,0,1.0108541,-11.121928,-23.80303)">
          <g
             id="g3524"
             transform="matrix(0.87060064,0,0,0.87060064,105.96665,270.94548)">
            <g
               id="g3536"
               transform="matrix(1.1435925,0,0,1.1435925,-119.60167,-300.13714)">
              <g
                 id="g3548"
                 transform="translate(1.7594504,-0.32167193)">
                <g
                   id="g3587"
                   inkscape:transform-center-y="4.834109"
                   transform="matrix(0.90634472,0,0,0.90634472,76.695405,196.48814)">
                  <g
                     id="g3579">
                    <rect
                       style="color:#000000;fill:#000000;fill-opacity:0.39215686;fill-rule:nonzero;stroke:none;stroke-width:1px;marker:none;visibility:visible;display:inline;overflow:visible;filter:url(#filter4665);enable-background:accumulate"
                       id="rect7350"
                       width="144"
                       height="144"
                       x="746.91168"
                       y="2028.9933"
                       rx="18.638395"
                       ry="18.638395" />
                    <rect
                       ry="18.638395"
                       rx="18.638395"
                       y="2025.9933"
                       x="746.91168"
                       height="144"
                       width="144"
                       id="rect7352"
                       style="color:#000000;fill:url(#linearGradient3600);fill-opacity:1;fill-rule:nonzero;stroke:none;stroke-width:1px;marker:none;visibility:visible;display:inline;overflow:visible;enable-background:accumulate" />
                    <path
                       inkscape:connector-curvature="0"
                       style="opacity:0.2;color:#000000;fill:#ffffff;fill-opacity:1;fill-rule:nonzero;stroke:none;stroke-width:1px;marker:none;visibility:visible;display:inline;overflow:visible;enable-background:accumulate"
                       d="m 765.56251,2026.0082 c -10.32567,0 -18.65625,8.2993 -18.65625,18.625 l 0,3 c 0,-10.3257 8.33058,-18.625 18.65625,-18.625 l 106.71875,0 c 10.32567,0 18.625,8.2993 18.625,18.625 l 0,-3 c 0,-10.3257 -8.29933,-18.625 -18.625,-18.625 l -106.71875,0 z"
                       id="path7354" />
                    <path
                       inkscape:connector-curvature="0"
                       style="opacity:0.2;color:#000000;fill:#000000;fill-opacity:1;fill-rule:nonzero;stroke:none;stroke-width:1px;marker:none;visibility:visible;display:inline;overflow:visible;enable-background:accumulate"
                       d="m 746.90626,2148.352 0,3 c 0,10.3256 8.33058,18.6562 18.65625,18.6562 l 106.71875,0 c 10.32567,0 18.625,-8.3306 18.625,-18.6562 l 0,-3 c 0,10.3256 -8.29933,18.6562 -18.625,18.6562 l -106.71875,0 c -10.32567,0 -18.65625,-8.3306 -18.65625,-18.6562 z"
                       id="path7356" />
                    <path
                       inkscape:connector-curvature="0"
                       style="opacity:0.2;color:#000000;fill:url(#linearGradient3602);fill-opacity:1;fill-rule:nonzero;stroke:none;stroke-width:1px;marker:none;visibility:visible"
                       d="m 818.90625,2046.2369 c -3.93783,0 -7.75159,0.4791 -11.4375,1.3124 l 0,15.9376 -11.75,-11.75 c -16.91685,8.5088 -28.5625,26.0221 -28.5625,46.25 0,14.2881 5.79267,27.2301 15.15625,36.5937 l 35.40625,35.4063 54.5625,0 c 10.32567,0 18.625,-8.2994 18.625,-18.625 l 0,-54.5626 L 855.5,2061.3931 c -9.36357,-9.3636 -22.30541,-15.1563 -36.59375,-15.1562 z"
                       id="path7358" />
                    <path
                       inkscape:connector-curvature="0"
                       id="path7360"
                       d="m 818.91168,2046.2506 c -3.93783,0 -7.75962,0.4665 -11.44553,1.2998 l 0,78.0896 c 0,1.1853 -0.9706,2.1242 -2.15593,2.1243 l -7.4824,0 c -1.18533,0 -2.12424,-0.939 -2.12424,-2.1243 l 0,-73.9045 c -16.91685,8.5089 -28.53454,26.03 -28.53454,46.2577 0,28.5766 23.16597,51.7426 51.74264,51.7426 28.57667,0 51.74264,-23.166 51.74264,-51.7426 0,-28.5766 -23.16597,-51.7426 -51.74264,-51.7426 z m -3.70949,27.8688 a 3.1146782,3.6343071 0 0 1 0.31705,0 3.1146782,3.6343071 0 0 1 1.49014,0.4755 l 17.31095,11.6992 17.27926,11.6357 a 3.1146782,3.6343071 0 0 1 0,6.3092 l -17.27926,11.6358 -17.31095,11.6675 a 3.1146782,3.6343071 0 0 1 -4.69235,-3.1389 l 0,-23.3348 0,-23.3032 a 3.1146782,3.6343071 0 0 1 2.88516,-3.646 z"
                       style="color:#000000;fill:#ffffff;fill-opacity:1;fill-rule:nonzero;stroke:none;stroke-width:1px;marker:none;visibility:visible;display:inline;overflow:visible;enable-background:accumulate" />
                  </g>
                </g>
              </g>
            </g>
          </g>
        </g>
      </g>
    </g>
  </g>
</svg>
