<?xml version="1.0" encoding="UTF-8" standalone="no"?>
<!-- Created with Inkscape (http://www.inkscape.org/) -->

<svg
   xmlns:dc="http://purl.org/dc/elements/1.1/"
   xmlns:cc="http://creativecommons.org/ns#"
   xmlns:rdf="http://www.w3.org/1999/02/22-rdf-syntax-ns#"
   xmlns:svg="http://www.w3.org/2000/svg"
   xmlns="http://www.w3.org/2000/svg"
   xmlns:xlink="http://www.w3.org/1999/xlink"
   xmlns:sodipodi="http://sodipodi.sourceforge.net/DTD/sodipodi-0.dtd"
   xmlns:inkscape="http://www.inkscape.org/namespaces/inkscape"
   width="128"
   height="128"
   id="svg4092"
   version="1.1"
   inkscape:version="0.48.1 r9760"
   sodipodi:docname="cmplayer.svg"
   inkscape:export-filename="/Users/xylosper/cmplayer-vlc/icons/cmplayer16.png"
   inkscape:export-xdpi="11.25"
   inkscape:export-ydpi="11.25">
  <defs
     id="defs4094">
    <linearGradient
       id="linearGradient3894">
      <stop
         id="stop3896"
         offset="0"
         style="stop-color:#d2d2d2;stop-opacity:1;" />
      <stop
         style="stop-color:#bebebe;stop-opacity:1;"
         offset="0.98000002"
         id="stop3902" />
      <stop
         id="stop3898"
         offset="1"
         style="stop-color:#ffffff;stop-opacity:1;" />
    </linearGradient>
    <linearGradient
       id="linearGradient4278">
      <stop
         style="stop-color:#ffffff;stop-opacity:0.98039216;"
         offset="0"
         id="stop4280" />
      <stop
         style="stop-color:#ffffff;stop-opacity:0;"
         offset="1"
         id="stop4282" />
    </linearGradient>
    <linearGradient
       id="linearGradient5285">
      <stop
         style="stop-color:#000000;stop-opacity:1;"
         offset="0"
         id="stop5287" />
      <stop
         id="stop3951"
         offset="0.03616503"
         style="stop-color:#000000;stop-opacity:1;" />
      <stop
         id="stop3949"
         offset="0.1049668"
         style="stop-color:#ffffff;stop-opacity:1;" />
      <stop
         id="stop5299"
         offset="0.16140011"
         style="stop-color:#000000;stop-opacity:1;" />
      <stop
         style="stop-color:#000000;stop-opacity:1;"
         offset="0.5"
         id="stop3953" />
      <stop
         id="stop5297"
         offset="0.634794"
         style="stop-color:#000000;stop-opacity:1;" />
      <stop
         id="stop5295"
         offset="0.80265063"
         style="stop-color:#ffffff;stop-opacity:1;" />
      <stop
         style="stop-color:#000000;stop-opacity:1;"
         offset="0.90466774"
         id="stop3955" />
      <stop
         style="stop-color:#000000;stop-opacity:1;"
         offset="1"
         id="stop5289" />
    </linearGradient>
    <linearGradient
       id="linearGradient5273">
      <stop
         id="stop5275"
         offset="0"
         style="stop-color:#000000;stop-opacity:1;" />
      <stop
         style="stop-color:#000000;stop-opacity:1;"
         offset="0.13025211"
         id="stop3959" />
      <stop
         style="stop-color:#ffffff;stop-opacity:1;"
         offset="0.5"
         id="stop5279" />
      <stop
         id="stop3957"
         offset="0.86974788"
         style="stop-color:#000000;stop-opacity:1;" />
      <stop
         id="stop5277"
         offset="1"
         style="stop-color:#000000;stop-opacity:1;" />
    </linearGradient>
    <linearGradient
       id="linearGradient5246">
      <stop
         id="stop5248"
         offset="0"
         style="stop-color:#ffffff;stop-opacity:0.51428574;" />
      <stop
         id="stop5250"
         offset="1"
         style="stop-color:#ffffff;stop-opacity:0;" />
    </linearGradient>
    <linearGradient
       id="linearGradient4273">
      <stop
         style="stop-color:#d1ecff;stop-opacity:1;"
         offset="0"
         id="stop4275" />
      <stop
         id="stop3948"
         offset="0.94999999"
         style="stop-color:#b9d2ff;stop-opacity:1;" />
      <stop
         style="stop-color:#bebebe;stop-opacity:1;"
         offset="1"
         id="stop4277" />
    </linearGradient>
    <radialGradient
       inkscape:collect="always"
       xlink:href="#linearGradient4273"
       id="radialGradient4265"
       cx="64"
       cy="64"
       fx="64"
       fy="64"
       r="48"
       gradientUnits="userSpaceOnUse" />
    <radialGradient
       inkscape:collect="always"
       xlink:href="#linearGradient4273"
       id="radialGradient4446"
       gradientUnits="userSpaceOnUse"
       cx="64"
       cy="64"
       fx="64"
       fy="64"
       r="48" />
    <linearGradient
       inkscape:collect="always"
       xlink:href="#linearGradient5246"
       id="linearGradient5244"
       x1="18"
       y1="64"
       x2="110"
       y2="64"
       gradientUnits="userSpaceOnUse" />
    <linearGradient
       inkscape:collect="always"
       xlink:href="#linearGradient5273"
       id="linearGradient5271"
       x1="24.000002"
       y1="988.36218"
       x2="104"
       y2="988.36218"
       gradientUnits="userSpaceOnUse" />
    <linearGradient
       inkscape:collect="always"
       xlink:href="#linearGradient5285"
       id="linearGradient5305"
       x1="25.025642"
       y1="989.36218"
       x2="105.02564"
       y2="989.36218"
       gradientUnits="userSpaceOnUse" />
    <linearGradient
       inkscape:collect="always"
       xlink:href="#linearGradient5273"
       id="linearGradient5535"
       gradientUnits="userSpaceOnUse"
       x1="24.000002"
       y1="988.36218"
       x2="104"
       y2="988.36218" />
    <linearGradient
       inkscape:collect="always"
       xlink:href="#linearGradient5285"
       id="linearGradient5541"
       gradientUnits="userSpaceOnUse"
       x1="25.025642"
       y1="989.36218"
       x2="105.02564"
       y2="989.36218" />
    <filter
       inkscape:collect="always"
       id="filter4232">
      <feGaussianBlur
         inkscape:collect="always"
         stdDeviation="1.3200002"
         id="feGaussianBlur4234" />
    </filter>
    <radialGradient
       inkscape:collect="always"
       xlink:href="#linearGradient4273"
       id="radialGradient4274"
       gradientUnits="userSpaceOnUse"
       cx="64"
       cy="64"
       fx="64"
       fy="64"
       r="48" />
    <radialGradient
       inkscape:collect="always"
       xlink:href="#linearGradient4273"
       id="radialGradient4333"
       gradientUnits="userSpaceOnUse"
       cx="64"
       cy="64"
       fx="64"
       fy="64"
       r="48" />
    <radialGradient
       inkscape:collect="always"
       xlink:href="#linearGradient3894"
       id="radialGradient3975"
       gradientUnits="userSpaceOnUse"
       cx="64"
       cy="64"
       fx="64"
       fy="64"
       r="48" />
    <radialGradient
       inkscape:collect="always"
       xlink:href="#linearGradient4278"
       id="radialGradient3977"
       gradientUnits="userSpaceOnUse"
       cx="37.436081"
       cy="60.21077"
       fx="37.436081"
       fy="60.21077"
       r="48" />
    <filter
       inkscape:collect="always"
       id="filter4259">
      <feGaussianBlur
         inkscape:collect="always"
         stdDeviation="1.7577005"
         id="feGaussianBlur4261" />
    </filter>
    <filter
       inkscape:collect="always"
       id="filter4263">
      <feGaussianBlur
         inkscape:collect="always"
         stdDeviation="1.7577005"
         id="feGaussianBlur4265" />
    </filter>
  </defs>
  <sodipodi:namedview
     id="base"
     pagecolor="#ffffff"
     bordercolor="#666666"
     borderopacity="1.0"
     inkscape:pageopacity="0.0"
     inkscape:pageshadow="2"
     inkscape:zoom="4.3852551"
     inkscape:cx="23.875627"
     inkscape:cy="53.330931"
     inkscape:document-units="px"
     inkscape:current-layer="layer1"
     showgrid="true"
     showguides="true"
     inkscape:guide-bbox="true"
     inkscape:window-width="1280"
     inkscape:window-height="905"
     inkscape:window-x="0"
     inkscape:window-y="22"
     inkscape:window-maximized="0"
     inkscape:snap-global="false">
    <inkscape:grid
       type="xygrid"
       id="grid4100"
       empspacing="8"
       visible="true"
       enabled="true"
       snapvisiblegridlinesonly="true"
       spacingx="2px"
       spacingy="2px"
       dotted="false" />
    <sodipodi:guide
       orientation="1,0"
       position="160,-22"
       id="guide5073" />
    <sodipodi:guide
       orientation="1,0"
       position="224,-56"
       id="guide5079" />
    <sodipodi:guide
       orientation="1,0"
       position="166,-60"
       id="guide5085" />
    <sodipodi:guide
       orientation="1,0"
       position="186,-30"
       id="guide5091" />
    <sodipodi:guide
       orientation="1,0"
       position="276,-20"
       id="guide5139" />
    <sodipodi:guide
       orientation="1,0"
       position="282,-46"
       id="guide5141" />
    <sodipodi:guide
       orientation="1,0"
       position="238,-40"
       id="guide5173" />
    <sodipodi:guide
       orientation="1,0"
       position="200,-54"
       id="guide5175" />
    <sodipodi:guide
       orientation="1,0"
       position="198,-60"
       id="guide5177" />
  </sodipodi:namedview>
  <metadata
     id="metadata4097">
    <rdf:RDF>
      <cc:Work
         rdf:about="">
        <dc:format>image/svg+xml</dc:format>
        <dc:type
           rdf:resource="http://purl.org/dc/dcmitype/StillImage" />
        <cc:license
           rdf:resource="" />
        <dc:title></dc:title>
      </cc:Work>
    </rdf:RDF>
  </metadata>
  <g
     inkscape:label="Layer 1"
     inkscape:groupmode="layer"
     id="layer1"
     transform="translate(0,-924.36218)">
    <g
       id="g4267"
       style="opacity:0.7;fill:#000000;fill-opacity:1">
      <path
         inkscape:connector-curvature="0"
         id="path4167"
         d="m 69.250002,930.95576 c -12.196354,0.20248 -24.829922,4.02076 -36.09375,11.65625 l -17.59375,6.78125 4.8125,4.375 c -18.0024997,20.18139 -21.7179504,48.82864 -7.21875,69.78124 17.229469,24.898 53.687548,29.543 81.6875,10.5625 l 17.593748,-6.7813 -4.8125,-4.375 c 18.0025,-20.1813 21.71795,-48.82863 7.21875,-69.78119 C 104.54536,938.29246 87.371701,930.6549 69.250002,930.95576 z"
         style="opacity:1;fill:#000000;fill-opacity:1;stroke:#000000;stroke-width:1.10379982000000010;stroke-opacity:1;filter:url(#filter4259)"
         transform="matrix(0.99182324,0,0,0.99182324,0.52331169,8.0816093)" />
      <path
         transform="matrix(0.99182324,0,0,0.99182324,0.52331169,8.0816093)"
         style="opacity:1;fill:#000000;fill-opacity:1;stroke:#000000;stroke-width:1.10379982000000010;stroke-opacity:1;filter:url(#filter4263)"
         d="m 69.250002,930.95576 c -12.196354,0.20248 -24.829922,4.02076 -36.09375,11.65625 l -17.59375,6.78125 4.8125,4.375 c -18.0024997,20.18139 -21.7179504,48.82864 -7.21875,69.78124 17.229469,24.898 53.687548,29.543 81.6875,10.5625 l 17.593748,-6.7813 -4.8125,-4.375 c 18.0025,-20.1813 21.71795,-48.82863 7.21875,-69.78119 C 104.54536,938.29246 87.371701,930.6549 69.250002,930.95576 z"
         id="path4006"
         inkscape:connector-curvature="0" />
    </g>
    <path
       style="fill:#000000;fill-opacity:1;stroke:none;stroke-width:0;stroke-miterlimit:4;stroke-opacity:1;stroke-dasharray:none"
       d="m 69.207071,931.42518 c -12.096627,0.20082 -24.626894,3.98788 -35.79862,11.56094 l -17.44989,6.7258 4.773149,4.33923 c -17.8552967,20.01637 -21.54036714,48.42935 -7.159724,69.21065 17.088588,24.6944 53.248558,29.3014 81.019562,10.4761 l 17.449892,-6.7258 -4.77315,-4.3393 c 17.8553,-20.0162 21.54037,-48.42931 7.15972,-69.21055 -10.21418,-14.76036 -27.247417,-22.33547 -45.220939,-22.03707 z"
       id="path4431"
       inkscape:connector-curvature="0" />
    <path
       sodipodi:type="arc"
       style="fill:url(#radialGradient3975);fill-opacity:1;fill-rule:evenodd;stroke:none"
       id="path3882"
       sodipodi:cx="64"
       sodipodi:cy="64"
       sodipodi:rx="48"
       sodipodi:ry="48"
       d="M 112,64 C 112,90.509668 90.509668,112 64,112 37.490332,112 16,90.509668 16,64 16,37.490332 37.490332,16 64,16 c 26.509668,0 48,21.490332 48,48 z"
       transform="matrix(0.62296993,0.90024399,-0.90024399,0.62296993,81.74554,890.87649)" />
    <g
       id="g3904"
       transform="matrix(1.0947743,0,0,1.0947743,-6.0655549,-93.671329)">
      <path
         transform="translate(0,-9.9999997e-6)"
         sodipodi:nodetypes="czczc"
         inkscape:connector-curvature="0"
         id="path4238"
         d="m 64,988.36218 c 0,0 20,-24 30,-24 10,0 12,22 12,22 0,0 -6.509269,-10.03147 -14,-10 -7.490731,0.0315 -28,12 -28,12 z"
         style="fill:#ffffff;fill-opacity:1;stroke:none;filter:url(#filter4232)" />
      <path
         transform="translate(0,-9.9999997e-6)"
         style="fill:#ffffff;fill-opacity:1;stroke:none;filter:url(#filter4232)"
         d="m 64,988.36218 c 0,0 20,24.00002 30,24.00002 10,0 12,-22.00002 12,-22.00002 0,0 -6.509269,10.03142 -14,10.00002 -7.490731,-0.032 -28,-12.00002 -28,-12.00002 z"
         id="path4240"
         inkscape:connector-curvature="0"
         sodipodi:nodetypes="czczc" />
      <path
         transform="translate(0,-9.9999997e-6)"
         sodipodi:nodetypes="czczc"
         inkscape:connector-curvature="0"
         id="path4242"
         d="m 64,988.36218 c 0,0 -20,-24 -30,-24 -10,0 -12,22 -12,22 0,0 6.509269,-10.03147 14,-10 7.490731,0.0315 28,12 28,12 z"
         style="fill:#ffffff;fill-opacity:1;stroke:none;filter:url(#filter4232)" />
      <path
         transform="translate(0,-9.9999997e-6)"
         style="fill:#ffffff;fill-opacity:1;stroke:none;filter:url(#filter4232)"
         d="m 64,988.36218 c 0,0 -20,24.00002 -30,24.00002 -10,0 -12,-22.00002 -12,-22.00002 0,0 6.509269,10.03142 14,10.00002 7.490731,-0.032 28,-12.00002 28,-12.00002 z"
         id="path4244"
         inkscape:connector-curvature="0"
         sodipodi:nodetypes="czczc" />
    </g>
    <g
       id="g4078"
       style="fill:#ffffff;fill-opacity:1;filter:url(#filter4232)"
       transform="matrix(1.0947743,0,0,1.0947743,-6.0655549,-93.67134)">
      <path
         style="fill:#ffffff;fill-opacity:1;stroke:none"
         d="m 64,988.36218 c 0,0 20,-24 30,-24 10,0 12,22 12,22 0,0 -6.509269,-10.03147 -14,-10 -7.490731,0.0315 -28,12 -28,12 z"
         id="path4080"
         inkscape:connector-curvature="0"
         sodipodi:nodetypes="czczc" />
      <path
         sodipodi:nodetypes="czczc"
         inkscape:connector-curvature="0"
         id="path4082"
         d="m 64,988.36218 c 0,0 20,24.00002 30,24.00002 10,0 12,-22.00002 12,-22.00002 0,0 -6.509269,10.03142 -14,10.00002 -7.490731,-0.032 -28,-12.00002 -28,-12.00002 z"
         style="fill:#ffffff;fill-opacity:1;stroke:none" />
      <path
         style="fill:#ffffff;fill-opacity:1;stroke:none"
         d="m 64,988.36218 c 0,0 -20,-24 -30,-24 -10,0 -12,22 -12,22 0,0 6.509269,-10.03147 14,-10 7.490731,0.0315 28,12 28,12 z"
         id="path4084"
         inkscape:connector-curvature="0"
         sodipodi:nodetypes="czczc" />
      <path
         sodipodi:nodetypes="czczc"
         inkscape:connector-curvature="0"
         id="path4086"
         d="m 64,988.36218 c 0,0 -20,24.00002 -30,24.00002 -10,0 -12,-22.00002 -12,-22.00002 0,0 6.509269,10.03142 14,10.00002 7.490731,-0.032 28,-12.00002 28,-12.00002 z"
         style="fill:#ffffff;fill-opacity:1;stroke:none" />
    </g>
    <g
       id="g3966"
       transform="matrix(1.0947743,0,0,1.0947743,-6.0655549,-93.67134)">
      <path
         sodipodi:nodetypes="czczc"
         inkscape:connector-curvature="0"
         id="path3940"
         d="m 64,988.36218 c 0,0 20,-24 30,-24 10,0 12,22 12,22 0,0 -6.509269,-10.03147 -14,-10 -7.490731,0.0315 -28,12 -28,12 z"
         style="fill:#000000;fill-opacity:1;stroke:none" />
      <path
         style="fill:#000000;fill-opacity:1;stroke:none"
         d="m 64,988.36218 c 0,0 20,24.00002 30,24.00002 10,0 12,-22.00002 12,-22.00002 0,0 -6.509269,10.03142 -14,10.00002 -7.490731,-0.032 -28,-12.00002 -28,-12.00002 z"
         id="path3960"
         inkscape:connector-curvature="0"
         sodipodi:nodetypes="czczc" />
      <path
         sodipodi:nodetypes="czczc"
         inkscape:connector-curvature="0"
         id="path3962"
         d="m 64,988.36218 c 0,0 -20,-24 -30,-24 -10,0 -12,22 -12,22 0,0 6.509269,-10.03147 14,-10 7.490731,0.0315 28,12 28,12 z"
         style="fill:#000000;fill-opacity:1;stroke:none" />
      <path
         style="fill:#000000;fill-opacity:1;stroke:none"
         d="m 64,988.36218 c 0,0 -20,24.00002 -30,24.00002 -10,0 -12,-22.00002 -12,-22.00002 0,0 6.509269,10.03142 14,10.00002 7.490731,-0.032 28,-12.00002 28,-12.00002 z"
         id="path3964"
         inkscape:connector-curvature="0"
         sodipodi:nodetypes="czczc" />
    </g>
    <path
       sodipodi:type="arc"
       style="fill:url(#radialGradient3977);fill-opacity:1;fill-rule:evenodd;stroke:none"
       id="path4276"
       sodipodi:cx="64"
       sodipodi:cy="64"
       sodipodi:rx="48"
       sodipodi:ry="48"
       d="M 112,64 C 112,90.509668 90.509668,112 64,112 37.490332,112 16,90.509668 16,64 16,37.490332 37.490332,16 64,16 c 26.509668,0 48,21.490332 48,48 z"
       transform="matrix(0.62296993,0.90024399,-0.90024399,0.62296993,81.74554,890.87649)" />
  </g>
</svg>
