/* XPM */
static char *cmplayer[] = {
/* columns rows colors chars-per-pixel */
"32 32 118 2",
"   c #000000",
".  c #0B0B0C",
"X  c #141414",
"o  c #161618",
"O  c #1B1B1B",
"+  c #232323",
"@  c #272729",
"#  c #26282B",
"$  c #2A2B2B",
"%  c #2D2E30",
"&  c #2E3335",
"*  c #28333D",
"=  c #313132",
"-  c #3B3C3C",
";  c #3B3C40",
":  c #303F48",
">  c #263A54",
",  c #293E53",
"<  c #3F4246",
"1  c #34454E",
"2  c #2B455F",
"3  c #334553",
"4  c #374A56",
"5  c #2D4661",
"6  c #314963",
"7  c #354F69",
"8  c #3A5061",
"9  c #294B75",
"0  c #464646",
"q  c #494949",
"w  c #4F4F50",
"e  c #545455",
"r  c #5A5A5B",
"t  c #405F7B",
"y  c #5E6163",
"u  c #616162",
"i  c #696D6F",
"p  c #717171",
"a  c #737678",
"s  c #75797A",
"d  c #7A7C7D",
"f  c #3167A4",
"g  c #3878BD",
"h  c #46749F",
"j  c #2F71C3",
"k  c #7F8082",
"l  c #5E91BC",
"z  c #6D9CB9",
"x  c #3383E6",
"c  c #3788E7",
"v  c #3989E7",
"b  c #3C8DE8",
"n  c #3E91E9",
"m  c #509FDC",
"M  c #659FC5",
"N  c #5EA2D3",
"B  c #63ADDE",
"V  c #70AFD2",
"C  c #4B9DE0",
"Z  c #4295EA",
"A  c #4C97EA",
"S  c #469AEB",
"D  c #499EEC",
"F  c #539CEB",
"G  c #4FA1E1",
"H  c #4DA3ED",
"J  c #52A5ED",
"K  c #5BA4ED",
"L  c #53AAEF",
"P  c #5FB5EF",
"I  c #56AEF0",
"U  c #58AFF0",
"Y  c #5BB3F1",
"T  c #5FB8F2",
"R  c #63ABEF",
"E  c #69AFEF",
"W  c #69B5E5",
"Q  c #66AEF0",
"!  c #67B0F0",
"~  c #6CB4F0",
"^  c #62BCF3",
"/  c #6DBEF3",
"(  c #71B7F1",
")  c #74BBF2",
"_  c #78BFF3",
"`  c #75C1EE",
"'  c #66C0F4",
"]  c #6DC0F4",
"[  c #74C4F5",
"{  c #7CC3F4",
"}  c #74C8F6",
"|  c #7CCCF6",
" . c #808080",
".. c gray54",
"X. c gray59",
"o. c #999A9A",
"O. c #9EA1A4",
"+. c #A5A5A5",
"@. c #ACACAC",
"#. c #A8B4BB",
"$. c #B1B1B1",
"%. c #BCBDBE",
"&. c #ADBAC4",
"*. c #BBBEC1",
"=. c #82CDF6",
"-. c #83D1F7",
";. c #86D2F8",
":. c #88D3F8",
">. c #C2C2C2",
",. c #C8C8C8",
"<. c gray83",
"1. c #D4D7D9",
"2. c #DDDDDE",
"3. c #E2E2E2",
"4. c #ECECEC",
"5. c #F4F4F4",
"6. c #FDFDFD",
"7. c None",
/* pixels */
"7.7.7.7.7.7.7.7.7.7.7.7.7.7.7.7.7.7.7.7.7.7.7.7.7.7.7.7.7.7.7.7.",
"7.7.7.7.7.7.7.7.7.7.7.7.7.7.7.7.7.7.7.7.7.7.7.7.7.7.7.7.7.7.7.7.",
"7.q = . . . . . . . . . . . . . . . . . . . . . . . . . . = q 7.",
"7.0 + O & & & & & & & & & & & & & & & & & & & & & & & & O $ 0 7.",
"7.0 + @ _ _ { { { { { =.=.=.=.=.;.:.:.:.:.:.:.:.:.;.;.;.+ $ 0 7.",
"7.q + @ ) ) ) _ { { { { { { | =.=.=.=.;.;.;.;.;.;.;.;.-.O $ q 7.",
"7.0 + + ( ( ( ) ) ) _ { M 4 # @ @ # 4 V =.-.-.-.-.-.-.-.O $ 0 7.",
"7.q + + ~ ~ ~ ~ ( ) ) 8 @ = w p p w = @ 4 | -.-.-.-.-.-.O $ q 7.",
"7.q + + E E ! ~ ~ ~ 3 @ r %.<.3.3.2.%.e @ 1 | | =.-.-.-.o $ q 7.",
"7.q + O R R R Q ! t @ p <.4.4.5.5.5.4.2.i : ` | | | | | o $ q 7.",
"7.0 + O K K R R R $ 0 <.4.5.+.<.6.6.6.5.3.z ` [ } } | | X $ 0 7.",
"7.q + O K K K K h @ X.4.5.6.o.a o.5.6.6.5.#.W [ [ [ } }   $ q 7.",
"7.0 + o F F K K 7 @ @.4.6.6...u q r ,.6.6.1.B / ] ] ^ '   $ 0 7.",
"7.q + . A F F F 6 = >.4.6.6.u = + = q >.6.4.N P T T ^ ^   $ q 7.",
"7.q +   c b Z A 5 @ $.4.6.6.e O . - >.6.6.2.m Y Y Y T ^   $ q 7.",
"7.0 +   x c c v f @ ..3.6.6.r $ p 4.6.6.6.&.G I U Y Y T   $ 0 7.",
"7.0 +   x x x c c # 0 <.5.6.d >.6.6.6.6.4.l H L L I Y Y   $ 0 7.",
"7.q +   x x x x x 9 @ i 3.5.5.6.6.6.6.5. .* C J L L L I   $ q 7.",
"7.q +   x x x x x x > @ r <.4.5.5.5.2.u @ , D H H J L L   $ q 7.",
"7.q +   x x x x x x x > @ = e d  .r = @ 2 S D D H H H J   $ q 7.",
"7.q +   x x x x x x x x j > # @ @ # , g Z Z S S D D H H   $ q 7.",
"7.q +   x x x x x x x x x x x x c v v b n Z Z Z S S D H   $ q 7.",
"7.0 +   x x x x x x x x x x x x x c v v b b n Z Z S S D   $ 0 7.",
"7.0 +                                                 .   $ 0 7.",
"7.. . . . . . . . . . . . $ 0 - $ - - . . . . . . . . . . . . 7.",
"7.y i i i i i i i i i i i s s a d s s i i i i i i i i i i i y 7.",
"7.7.7.7.7.7.7.7.7.7.7.7.7.7.d - - d 7.7.7.7.7.7.7.7.7.7.7.7.7.7.",
"7.7.7.7.7.7.7.7.7.7.7.7.7.7.0     0 7.7.7.7.7.7.7.7.7.7.7.7.7.7.",
"7.7.7.7.7.7.7.% ; < % o . X - $ = - X .   . o @ = 7.7.7.7.7.7.7.",
"7.7.7.7.7.7.7.7.7.7.7.7.7.k O.*.%.o.s 7.7.7.7.7.7.7.7.7.7.7.7.7.",
"7.7.7.7.7.7.7.7.7.7.7.7.7.7.7.7.7.7.7.7.7.7.7.7.7.7.7.7.7.7.7.7.",
"7.7.7.7.7.7.7.7.7.7.7.7.7.7.7.7.7.7.7.7.7.7.7.7.7.7.7.7.7.7.7.7."
};
