<?xml version="1.0" encoding="UTF-8" standalone="no"?>
<!-- Created with Inkscape (http://www.inkscape.org/) -->

<svg
   xmlns:dc="http://purl.org/dc/elements/1.1/"
   xmlns:cc="http://creativecommons.org/ns#"
   xmlns:rdf="http://www.w3.org/1999/02/22-rdf-syntax-ns#"
   xmlns:svg="http://www.w3.org/2000/svg"
   xmlns="http://www.w3.org/2000/svg"
   xmlns:sodipodi="http://sodipodi.sourceforge.net/DTD/sodipodi-0.dtd"
   xmlns:inkscape="http://www.inkscape.org/namespaces/inkscape"
   width="32"
   height="22"
   id="svg2989"
   version="1.1"
   inkscape:version="0.91 r13725"
   sodipodi:docname="small-button.svg"
   inkscape:export-filename="/home/xylosper/dev/bomi/src/bomi/skins/air/pl.png"
   inkscape:export-xdpi="90"
   inkscape:export-ydpi="90">
  <defs
     id="defs2991" />
  <sodipodi:namedview
     id="base"
     pagecolor="#ffffff"
     bordercolor="#666666"
     borderopacity="1.0"
     inkscape:pageopacity="0.0"
     inkscape:pageshadow="2"
     inkscape:zoom="22.4"
     inkscape:cx="9.6151266"
     inkscape:cy="13.694552"
     inkscape:document-units="px"
     inkscape:current-layer="layer1"
     showgrid="true"
     inkscape:window-width="1920"
     inkscape:window-height="1021"
     inkscape:window-x="-4"
     inkscape:window-y="0"
     inkscape:window-maximized="1">
    <inkscape:grid
       type="xygrid"
       id="grid3054" />
  </sodipodi:namedview>
  <metadata
     id="metadata2994">
    <rdf:RDF>
      <cc:Work
         rdf:about="">
        <dc:format>image/svg+xml</dc:format>
        <dc:type
           rdf:resource="http://purl.org/dc/dcmitype/StillImage" />
        <dc:title />
      </cc:Work>
    </rdf:RDF>
  </metadata>
  <g
     inkscape:label="Layer 1"
     inkscape:groupmode="layer"
     id="layer1"
     transform="translate(0,-1030.3622)">
    <path
       style="fill:#eeeeee;fill-opacity:1;fill-rule:evenodd;stroke:none"
       d="m -39.75,994.21934 c -1.108,0 -2,0.892 -2,2 l 0,15.99996 c 0,1.108 0.892,2 2,2 l 24,0 c 1.108,0 2,-0.892 2,-2 l 0,-15.99996 c 0,-1.108 -0.892,-2 -2,-2 l -24,0 z m 0,16.99996 7,0 0,1 -7,0 0,-1 z m 9,0 8,0 0,1 -8,0 0,-1 z m 10,0 5,0 0,1 -5,0 0,-1 z"
       id="rect3056"
       inkscape:connector-curvature="0" />
    <path
       inkscape:connector-curvature="0"
       id="path4105"
       d="m -55.823314,1044.6097 0,-1.989 -1.0749,-0.2016 c -1.0731,-0.2013 -4.4489,-2.1903 -4.8678,-2.8681 -0.1231,-0.1993 0.077,-0.6759 0.4522,-1.0749 l 0.6734,-0.7168 1.4766,1.0608 c 0.8121,0.5835 1.896,1.1811 2.4085,1.3281 l 0.932,0.2673 0,-1.6659 0,-1.6659 2.938,2.363 2.9379,2.3631 -1.0944,0.946 c -0.6019,0.5203 -1.924,1.5978 -2.938,2.3944 l -1.8435,1.4484 0,-1.9889 z m -18.3001,-2.2851 0,-1.1718 1.8121,-0.1643 c 2.9565,-0.2681 4.9153,-1.3829 8.3798,-4.7692 3.2997,-3.2252 4.8342,-4.3319 6.8397,-4.9328 l 1.2685,-0.38 0,-1.9439 0,-1.944 2.938,2.3631 2.9379,2.363 -1.0944,0.9461 c -0.6019,0.5203 -1.9171,1.5923 -2.9225,2.3822 l -1.8281,1.4363 -0.092,-1.6805 -0.092,-1.6806 -1.6379,0.7604 c -1.1009,0.5111 -2.701,1.7954 -4.88,3.9171 -4.0498,3.943 -5.9652,4.9765 -10.1809,5.4932 l -1.4488,0.1775 0,-1.1718 z m 7.3201,-7.5282 c -1.4891,-1.1347 -4.63,-2.2683 -6.2847,-2.2683 -0.996,0 -1.0354,-0.044 -1.0354,-1.1617 l 0,-1.1618 2.2113,0.2351 c 2.3951,0.2547 5.9889,1.8202 7.2432,3.1552 0.6351,0.6761 0.641,0.7381 0.144,1.4967 -0.2852,0.4353 -0.6057,0.7823 -0.7123,0.7711 -0.1065,-0.011 -0.8113,-0.4911 -1.5661,-1.0663 z"
       style="fill:#eeeeee;fill-opacity:1" />
    <path
       inkscape:connector-curvature="0"
       id="path4118"
       d="m -79.504902,1077.7317 c -1.35945,-1.0961 -2.61025,-2.1315 -2.77955,-2.3008 -0.2119,-0.2119 0.5584,-1.0192 2.4717,-2.5904 l 2.77956,-2.2826 0.0896,1.8364 0.0896,1.8364 5.56922,-0.1267 c 4.478499,-0.1019 5.778069,-0.2274 6.635699,-0.6412 1.07096,-0.5167 2.06074,-2.0345 2.06074,-3.16 0,-0.3083 0.55666,-1.0014 1.23702,-1.5403 l 1.23702,-0.9797 -0.15504,1.9314 c -0.17455,2.1745 -1.00957,4.0751 -2.20273,5.0136 -1.52286,1.1979 -3.43378,1.5167 -9.091069,1.5167 l -5.2927,0 -0.0887,1.74 -0.0887,1.7401 -2.47172,-1.9929 z m -2.37885,-7.4659 c 0.1745,-2.1744 1.0096,-4.075 2.20273,-5.0136 1.52387,-1.1986 3.43302,-1.5167 9.10527,-1.5167 l 5.306919,0 0,-1.7964 0,-1.7965 2.8294,2.2757 c 1.55617,1.2517 2.8294,2.3215 2.8294,2.3774 0,0.056 -1.23972,1.1197 -2.75494,2.364 l -2.75495,2.2624 -0.0896,-1.8364 -0.0896,-1.8364 -5.569209,0.1267 c -4.53506,0.1032 -5.77233,0.2247 -6.66307,0.6542 -1.10946,0.535 -2.03338,1.947 -2.03338,3.1075 0,0.348 -0.51969,1.0117 -1.23701,1.5798 l -1.23706,0.9798 0.1551,-1.9315 z"
       style="fill:#eeeeee;fill-opacity:1" />
    <path
       id="path3069"
       d="m -34.758236,1086.2144 c -0.1253,4e-4 -0.2618,0.025 -0.4081,0.076 -0.2745,0.097 -0.2831,0.1057 -3.7679,3.5299 l -1.7219,1.6938 0,8.9684 1.5005,1.4741 c 3.5279,3.4678 3.6941,3.6261 3.9198,3.7364 l 0,0 c 0.4023,0.1953 0.8069,0.1084 1.056,-0.2263 0.2542,-0.3427 0.2396,0.2516 0.2529,-9.4146 0.01,-7.9139 0,-8.9732 -0.058,-9.185 -0.1249,-0.4296 -0.399,-0.6541 -0.775,-0.6527 z m 8.8032,0.9073 -1.5782,1.6839 c 1.9204,1.8006 3.1184,4.3593 3.1184,7.1985 0,2.8387 -1.1991,5.3973 -3.1184,7.1968 l 1.5782,1.6873 c 2.3691,-2.2241 3.8603,-5.3795 3.8603,-8.8857 0,-3.5053 -1.4909,-6.6579 -3.8603,-8.8808 z m -2.773,2.9513 -1.5782,1.7056 c 1.1256,1.0597 1.831,2.5584 1.831,4.2255 0,1.6674 -0.7049,3.1673 -1.831,4.2256 l 1.5782,1.7038 c 1.582,-1.4815 2.5747,-3.5877 2.5747,-5.9278 0,-2.3395 -0.992,-4.4471 -2.5747,-5.9293 l 0,0 z m -15.3407,1.646 c -0.4243,0 -0.7651,0.3408 -0.7651,0.7652 l 0,7.0415 c 0,0.4243 0.3408,0.7651 0.7651,0.7651 l 2.8672,0 0,-8.5718 -2.8672,0 z m 12.4933,1.2758 -1.5434,1.7219 c 0.3533,0.3185 0.5817,0.7726 0.5817,1.2858 0,0.5131 -0.2284,0.9703 -0.5817,1.2889 l 1.5418,1.722 c 0.8258,-0.7426 1.36,-1.8102 1.36,-3.0093 0,-1.1976 -0.5339,-2.2662 -1.3584,-3.0093 z"
       style="color:#000000;fill:#eeeeee;fill-opacity:1"
       inkscape:connector-curvature="0" />
    <path
       style="fill:#eeeeee;fill-opacity:1"
       d="m -42.183397,1021.9294 1.03673,6.7254 1.79072,-1.7922 3.5575,3.5561 2.12129,-2.1212 -3.55611,-3.5561 1.77383,-1.7767 -6.72396,-1.0353 z m 19.57967,0 -6.72255,1.0339 1.79211,1.7935 -3.55751,3.5562 2.1227,2.1226 3.5561,-3.5575 1.77242,1.7739 1.03673,-6.7226 z m -13.21161,11.0734 -3.55749,3.559 -1.77384,-1.7753 -1.03673,6.7212 6.72396,-1.0339 -1.79212,-1.7922 3.55751,-3.5575 -2.12129,-2.1213 z m 6.82807,0.017 -2.12129,2.1213 3.55751,3.5575 -1.77383,1.7753 6.72256,1.0353 -1.03532,-6.7226 -1.79071,1.7908 -3.55892,-3.5576 z"
       id="path10-44"
       inkscape:connector-curvature="0" />
    <path
       inkscape:connector-curvature="0"
       id="rect4136"
       d="m 1.5174752,1031.5712 0,3.9572 4.07959,0 0,-3.9572 -4.07959,0 z m 7.13927,0 0,3.9572 21.8257798,0 0,-3.9572 -21.8257798,0 z m -7.13927,7.8328 0,3.9572 4.07959,0 0,-3.9572 -4.07959,0 z m 7.13927,0 0,3.9572 21.8257798,0 0,-3.9572 -21.8257798,0 z m -7.13927,7.8328 0,3.9164 4.07959,0 0,-3.9164 -4.07959,0 z m 7.13927,0 0,3.9164 21.8257798,0 0,-3.9164 -21.8257798,0 z"
       style="color:#000000;display:inline;overflow:visible;visibility:visible;fill:#eeeeee;fill-opacity:1;fill-rule:nonzero;stroke:none;stroke-width:1px;marker:none;enable-background:accumulate" />
    <path
       inkscape:connector-curvature="0"
       id="path4058"
       d="m -15.050478,1019.25 c -6.41016,0 -11.61568,4.0237 -11.61568,8.9815 0,4.9579 5.20552,8.9815 11.61568,8.9815 1.71368,0 3.32815,-0.2778 4.79226,-0.7934 l 6.3790901,2.0312 1.206,0.3808 -0.60301,-1.1108 -2.34852,-4.2527 c 1.36925,-1.4734 2.15811,-3.2836 2.15811,-5.2366 0,-4.9578 -5.17379,-8.9815 -11.5839301,-8.9815 z"
       style="color:#000000;display:inline;overflow:visible;visibility:visible;fill:#eeeeee;fill-opacity:1;fill-rule:nonzero;stroke:none;stroke-width:1px;marker:none;enable-background:accumulate" />
    <path
       style="fill:#eeeeee;fill-opacity:1"
       id="path104"
       d="m 37.745973,1006.3928 c -0.415,0 -0.70726,0.3017 -0.74995,0.6704 l -0.23924,2.0713 c -0.48276,0.1437 -0.94381,0.3364 -1.37931,0.571 l -1.63373,-1.2954 c -0.29077,-0.2303 -0.7108,-0.2373 -1.00439,0.056 l -1.56047,1.5604 c -0.29344,0.2935 -0.27809,0.7073 -0.056,1.0044 l 1.25437,1.6769 c -0.46379,1.0648 -0.5702,1.3646 -0.56899,1.3601 l -2.07125,0.2392 c -0.36852,0.043 -0.67046,0.3352 -0.67046,0.75 l 0,2.2073 c 0,0.415 0.30315,0.6947 0.67046,0.748 l 2.07991,0.3017 c 0.14396,0.4767 0.33626,0.9317 0.56899,1.3622 l -1.28457,1.6209 c -0.23038,0.2908 -0.23731,0.7108 0.056,1.0044 l 1.56047,1.5605 c 0.29343,0.2934 0.70492,0.278 1.00224,0.056 l 1.67039,-1.2479 c 0.43194,0.2315 0.8884,0.4223 1.36649,0.5646 l 0.23925,2.0691 c 0.0427,0.3686 0.33503,0.6704 0.74995,0.6704 l 2.2072,0 c 0.415,0 0.69473,-0.3031 0.74799,-0.6704 l 0.30175,-2.0819 c 0.46478,-0.1414 0.90896,-0.3279 1.32984,-0.5536 l 1.68751,1.2609 c 0.29719,0.2221 0.71078,0.2373 1.00439,-0.056 l 1.56046,-1.5604 c 0.29345,-0.2934 0.28644,-0.7137 0.056,-1.0044 l -1.3041,-1.6447 c 0.22966,-0.4267 0.41999,-0.877 0.56254,-1.349 l 2.07755,-0.3019 c 0.36715,-0.053 0.67047,-0.3349 0.67047,-0.7498 l 0,-2.2073 c 0,-0.415 -0.30179,-0.7054 -0.67047,-0.7481 l -2.07555,-0.2412 c -0.14095,-0.4694 -0.32693,-0.9183 -0.55377,-1.3431 l 1.26949,-1.7026 c 0.22206,-0.2973 0.23733,-0.7108 -0.056,-1.0044 l -1.56046,-1.5604 c -0.29345,-0.2935 -0.71158,-0.2866 -1.00224,-0.056 l -1.65304,1.3105 c -0.42472,-0.2294 -0.87301,-0.4196 -1.34288,-0.5625 l -0.30175,-2.0843 c -0.0531,-0.3672 -0.33288,-0.6705 -0.74799,-0.6705 z m 1.11213,6.7054 c 1.70452,0 3.08639,1.3821 3.08639,3.0863 0,1.7045 -1.38203,3.0864 -3.08639,3.0864 -1.7045,0 -3.08637,-1.3821 -3.08637,-3.0864 0,-1.7046 1.38203,-3.0863 3.08637,-3.0863"
       inkscape:connector-curvature="0" />
  </g>
</svg>
