<?xml version="1.0" encoding="UTF-8" standalone="no"?>
<!-- Created with Inkscape (http://www.inkscape.org/) -->

<svg
   xmlns:dc="http://purl.org/dc/elements/1.1/"
   xmlns:cc="http://creativecommons.org/ns#"
   xmlns:rdf="http://www.w3.org/1999/02/22-rdf-syntax-ns#"
   xmlns:svg="http://www.w3.org/2000/svg"
   xmlns="http://www.w3.org/2000/svg"
   xmlns:sodipodi="http://sodipodi.sourceforge.net/DTD/sodipodi-0.dtd"
   xmlns:inkscape="http://www.inkscape.org/namespaces/inkscape"
   width="567"
   height="129"
   id="svg2"
   version="1.1"
   inkscape:version="0.48.5 r10040"
   sodipodi:docname="skins.svg"
   inkscape:export-filename="/home/ivan/Projekti/Random/skins.png"
   inkscape:export-xdpi="90"
   inkscape:export-ydpi="90">
  <defs
     id="defs4">
    <filter
       inkscape:collect="always"
       id="filter4927"
       x="-0.30000007"
       width="1.6000001"
       y="-0.30000007"
       height="1.6000001"
       color-interpolation-filters="sRGB">
      <feGaussianBlur
         inkscape:collect="always"
         stdDeviation="5.8035726"
         id="feGaussianBlur4929" />
    </filter>
    <filter
       inkscape:collect="always"
       id="filter5041"
       x="-0.33599997"
       width="1.6720001"
       y="-0.33599997"
       height="1.6720001"
       color-interpolation-filters="sRGB">
      <feGaussianBlur
         inkscape:collect="always"
         stdDeviation="6.4999993"
         id="feGaussianBlur5043" />
    </filter>
    <filter
       inkscape:collect="always"
       id="filter5136"
       color-interpolation-filters="sRGB">
      <feGaussianBlur
         inkscape:collect="always"
         stdDeviation="2.1011633"
         id="feGaussianBlur5138" />
    </filter>
  </defs>
  <sodipodi:namedview
     id="base"
     pagecolor="#919191"
     bordercolor="#666666"
     borderopacity="1.0"
     inkscape:pageopacity="0"
     inkscape:pageshadow="2"
     inkscape:zoom="1"
     inkscape:cx="262.66806"
     inkscape:cy="48.930638"
     inkscape:document-units="px"
     inkscape:current-layer="g5146"
     showgrid="true"
     inkscape:window-width="1920"
     inkscape:window-height="1025"
     inkscape:window-x="-2"
     inkscape:window-y="-3"
     inkscape:window-maximized="1"
     showguides="true"
     inkscape:guide-bbox="true">
    <inkscape:grid
       type="xygrid"
       id="grid3034"
       empspacing="5"
       visible="true"
       enabled="true"
       snapvisiblegridlinesonly="true" />
    <sodipodi:guide
       orientation="1,0"
       position="212,112"
       id="guide4980" />
    <sodipodi:guide
       orientation="1,0"
       position="138,113"
       id="guide4982" />
    <sodipodi:guide
       orientation="0,1"
       position="212,114"
       id="guide4986" />
  </sodipodi:namedview>
  <metadata
     id="metadata7">
    <rdf:RDF>
      <cc:Work
         rdf:about="">
        <dc:format>image/svg+xml</dc:format>
        <dc:type
           rdf:resource="http://purl.org/dc/dcmitype/StillImage" />
        <dc:title />
      </cc:Work>
    </rdf:RDF>
  </metadata>
  <g
     inkscape:label="Layer 1"
     inkscape:groupmode="layer"
     id="layer1"
     transform="translate(0,-923.36218)">
    <g
       id="g5146"
       transform="translate(-88.1964,400.79968)">
      <path
         id="path4342"
         d="m 375.1339,533 c -14.09945,0.041 -28.34762,8.20942 -33.6875,21.75 -0.92007,1.99056 -1.6306,4.05172 -2.09375,6.125 l -13.15625,0 c -0.48991,-1.59406 -1.14378,-3.16756 -2,-4.6875 -7.88742,-17.21468 -35.04223,-18.84275 -45.15625,-2.96875 -1.84945,2.34737 -3.16214,4.94034 -3.9375,7.65625 l -22.59375,0 c -0.48992,-1.59406 -1.14378,-3.16756 -2,-4.6875 -7.88742,-17.21468 -35.04223,-18.84275 -45.15625,-2.96875 -1.84945,2.34737 -3.13089,4.94034 -3.90625,7.65625 l -83.5312,0 -29.7188,0 0,47.53125 0,39.15625 0,4.125 566.25,0 0,-4.125 0,-39.15625 0,-47.53125 -23.65625,0 -6.0625,0 -77.5625,0 c -0.48992,-1.59406 -1.14377,-3.16756 -2,-4.6875 -7.88742,-17.21468 -35.04223,-18.84275 -45.15625,-2.96875 -1.84944,2.34737 -3.13088,4.94034 -3.90625,7.65625 l -22.59375,0 c -0.48903,-1.59336 -1.14615,-3.16913 -2,-4.6875 -8.08021,-17.69116 -36.22858,-18.75903 -45.75,-2.03125 -1.54402,2.09103 -2.64577,4.35139 -3.34375,6.71875 l -13.5,0 C 407.184,552.66499 402.76924,545.04951 395.85265,540.03125 389.84383,535.18441 382.51933,532.97851 375.1339,533 z"
         style="color:#000000;fill:#efefef;fill-opacity:1;fill-rule:nonzero;stroke:none;stroke-width:1px;marker:none;visibility:visible;display:inline;overflow:visible;enable-background:accumulate"
         inkscape:connector-curvature="0" />
      <path
         id="path5121"
         d="m 374.90625,529.21875 c -0.48673,0.004 -0.9805,0.0355 -1.46875,0.0625 -20.90904,0.11708 -38.84227,21.14159 -34.34375,41.875 3.39916,19.16918 24.01611,33.88832 43.28125,28.59375 19.54118,-4.00302 32.72236,-26.27178 26.03125,-45.34375 -4.20324,-14.49507 -18.41124,-25.31299 -33.5,-25.1875 z m -149.5,8.84375 c -10.91334,0.41549 -21.00906,8.34507 -24.0625,18.875 -5.02278,14.31664 4.86239,31.05757 19.53125,34.0625 14.46165,3.97443 29.94838,-7.07913 32.5,-21.46875 3.37688,-15.56382 -10.08559,-31.3496 -25.78125,-31.4375 -0.73302,-0.0406 -1.45994,-0.0589 -2.1875,-0.0312 z m 73.65625,0 c -10.91334,0.41549 -21.00906,8.34507 -24.0625,18.875 -5.02278,14.31664 4.86239,31.05757 19.53125,34.0625 14.46165,3.97443 29.94838,-7.07913 32.5,-21.46875 3.37688,-15.56382 -10.08559,-31.3496 -25.78125,-31.4375 -0.73302,-0.0406 -1.45994,-0.0589 -2.1875,-0.0312 z m 149.40625,0 c -0.36537,0.003 -0.72724,0.011 -1.09375,0.0312 -15.69566,0.0879 -29.12688,15.87368 -25.75,31.4375 2.55162,14.38962 18.0071,25.44318 32.46875,21.46875 14.66886,-3.00493 24.55403,-19.74586 19.53125,-34.0625 -3.15522,-10.88093 -13.82966,-18.96921 -25.15625,-18.875 z m 73.6875,0 c -0.36537,0.003 -0.72724,0.011 -1.09375,0.0312 -15.69566,0.0879 -29.15813,15.87368 -25.78125,31.4375 2.55162,14.38962 18.0071,25.44318 32.46875,21.46875 14.66886,-3.00493 24.58528,-19.74586 19.5625,-34.0625 -3.15522,-10.88093 -13.82966,-18.96921 -25.15625,-18.875 z"
         style="color:#000000;fill:#282629;fill-opacity:1;fill-rule:nonzero;stroke:#282629;stroke-width:1px;stroke-opacity:0.39215686;marker:none;visibility:visible;display:inline;overflow:visible;filter:url(#filter5136);enable-background:accumulate"
         inkscape:connector-curvature="0" />
      <g
         id="g4249">
        <path
           style="color:#000000;fill:#ffffff;fill-opacity:1;fill-rule:nonzero;stroke:none;stroke-width:1px;marker:none;visibility:visible;display:inline;overflow:visible;enable-background:accumulate"
           d="m 373.43581,529.26816 c -20.90904,0.11708 -38.83364,21.15121 -34.33512,41.88462 3.39916,19.16918 24.00858,33.89206 43.27372,28.59749 19.54118,-4.00302 32.72178,-26.28541 26.03067,-45.35738 -4.33883,-14.96265 -19.34538,-25.98976 -34.96927,-25.12473 z"
           id="path5061"
           inkscape:connector-curvature="0" />
        <path
           sodipodi:type="arc"
           style="color:#000000;fill:#1f1f1f;fill-opacity:1;fill-rule:nonzero;stroke:none;stroke-width:1px;marker:none;visibility:visible;display:inline;overflow:visible;enable-background:accumulate"
           id="path3141"
           sodipodi:cx="99.285713"
           sodipodi:cy="738.43359"
           sodipodi:rx="23.214285"
           sodipodi:ry="23.214285"
           d="m 122.5,738.43359 c 0,12.8209 -10.39339,23.21429 -23.214287,23.21429 -12.820895,0 -23.214285,-10.39339 -23.214285,-23.21429 0,-12.82089 10.39339,-23.21428 23.214285,-23.21428 12.820897,0 23.214287,10.39339 23.214287,23.21428 z"
           transform="matrix(1.3054407,0,0,-1.3054407,244.74601,1528.917)" />
        <path
           transform="matrix(0.9149043,0,0,-0.9149043,283.52069,1240.5318)"
           d="m 122.5,738.43359 c 0,12.8209 -10.39339,23.21429 -23.214287,23.21429 -12.820895,0 -23.214285,-10.39339 -23.214285,-23.21429 0,-12.82089 10.39339,-23.21428 23.214285,-23.21428 12.820897,0 23.214287,10.39339 23.214287,23.21428 z"
           sodipodi:ry="23.214285"
           sodipodi:rx="23.214285"
           sodipodi:cy="738.43359"
           sodipodi:cx="99.285713"
           id="path3143"
           style="opacity:0.2;color:#000000;fill:#666666;fill-opacity:1;fill-rule:nonzero;stroke:none;stroke-width:1px;marker:none;visibility:visible;display:inline;overflow:visible;filter:url(#filter4927);enable-background:accumulate"
           sodipodi:type="arc" />
        <path
           inkscape:connector-curvature="0"
           d="m 388.02593,564.93531 c 0,-1.00935 -9.59112,-6.54441 -10.4651,-7.04927 -0.87415,-0.50452 -10.46328,-6.04344 -11.33726,-5.53851 -0.87416,0.50488 -0.87199,11.5786 -0.87199,12.58815 0,1.00936 -0.002,12.08289 0.87199,12.58813 0.87415,0.50485 10.46329,-5.03408 11.33726,-5.53849 0.87416,-0.50487 10.4651,-6.03992 10.4651,-7.04928"
           id="path10"
           style="fill:#ffffff;fill-rule:evenodd" />
      </g>
      <g
         id="g4153">
        <path
           inkscape:connector-curvature="0"
           id="path5069"
           d="m 447.38493,538.0905 c -15.69566,0.0879 -29.15102,15.87745 -25.77414,31.44127 2.55162,14.38962 18.02238,25.44155 32.48403,21.46712 14.66886,-3.00493 24.56306,-19.73152 19.54028,-34.04816 -3.257,-11.23193 -14.52188,-19.50958 -26.25017,-18.86023 z"
           style="color:#000000;fill:#ffffff;fill-opacity:1;fill-rule:nonzero;stroke:none;stroke-width:1px;marker:none;visibility:visible;display:inline;overflow:visible;enable-background:accumulate" />
        <path
           sodipodi:type="arc"
           style="color:#000000;fill:#1f1f1f;fill-opacity:1;fill-rule:nonzero;stroke:none;stroke-width:1px;marker:none;visibility:visible;display:inline;overflow:visible;enable-background:accumulate"
           id="path3145"
           sodipodi:cx="99.285713"
           sodipodi:cy="738.43359"
           sodipodi:rx="23.214285"
           sodipodi:ry="23.214285"
           d="m 122.5,738.43359 c 0,12.8209 -10.39339,23.21429 -23.214287,23.21429 -12.820895,0 -23.214285,-10.39339 -23.214285,-23.21429 0,-12.82089 10.39339,-23.21428 23.214285,-23.21428 12.820897,0 23.214287,10.39339 23.214287,23.21428 z"
           transform="matrix(0.9149043,0,0,-0.9149043,357.18485,1240.5318)" />
        <path
           transform="matrix(0.67013656,0,0,-0.67013656,381.48679,1059.7871)"
           d="m 122.5,738.43359 c 0,12.8209 -10.39339,23.21429 -23.214287,23.21429 -12.820895,0 -23.214285,-10.39339 -23.214285,-23.21429 0,-12.82089 10.39339,-23.21428 23.214285,-23.21428 12.820897,0 23.214287,10.39339 23.214287,23.21428 z"
           sodipodi:ry="23.214285"
           sodipodi:rx="23.214285"
           sodipodi:cy="738.43359"
           sodipodi:cx="99.285713"
           id="path4931"
           style="opacity:0.2;color:#000000;fill:#666666;fill-opacity:1;fill-rule:nonzero;stroke:none;stroke-width:1px;marker:none;visibility:visible;display:inline;overflow:visible;filter:url(#filter5041);enable-background:accumulate"
           sodipodi:type="arc" />
        <path
           inkscape:connector-curvature="0"
           id="path12-0"
           d="m 449.032,572.28544 c 0.8007,-0.0206 5.24792,-2.96489 5.6712,-3.24458 0.44434,-0.29377 5.31858,-3.51741 5.31858,-4.10547 0,-0.58806 -4.87446,-3.8113 -5.31858,-4.10549 -0.44404,-0.29378 -5.31665,-3.51882 -5.76149,-3.22504 -0.44433,0.29378 -0.44293,6.74238 -0.44293,7.33053 0,0.58806 -8.6e-4,7.0365 0.44293,7.33052 0.0208,0.0137 0.0509,0.0205 0.0902,0.0194 z m -12.47699,0 c 0.8007,-0.0206 5.24791,-2.96489 5.6712,-3.24458 0.44404,-0.29377 5.31857,-3.51741 5.31857,-4.10547 0,-0.58806 -4.87446,-3.8113 -5.31857,-4.10549 -0.44432,-0.29378 -5.31739,-3.51882 -5.7615,-3.22504 -0.44403,0.29378 -0.44293,6.74238 -0.44293,7.33053 0,0.58806 -8.6e-4,7.0365 0.44293,7.33052 0.0209,0.0137 0.0509,0.0205 0.0904,0.0194 z"
           style="fill:#ffffff;fill-rule:evenodd" />
      </g>
      <g
         id="g4195">
        <path
           transform="matrix(0.9149043,0,0,-0.9149043,430.849,1240.5318)"
           d="m 122.5,738.43359 c 0,12.8209 -10.39339,23.21429 -23.214287,23.21429 -12.820895,0 -23.214285,-10.39339 -23.214285,-23.21429 0,-12.82089 10.39339,-23.21428 23.214285,-23.21428 12.820897,0 23.214287,10.39339 23.214287,23.21428 z"
           sodipodi:ry="23.214285"
           sodipodi:rx="23.214285"
           sodipodi:cy="738.43359"
           sodipodi:cx="99.285713"
           id="path3151"
           style="color:#000000;fill:#000000;fill-opacity:1;fill-rule:nonzero;stroke:none;stroke-width:1px;marker:none;visibility:visible;display:inline;overflow:visible;enable-background:accumulate"
           sodipodi:type="arc" />
        <path
           style="color:#000000;fill:#ffffff;fill-opacity:1;fill-rule:nonzero;stroke:none;stroke-width:1px;marker:none;visibility:visible;display:inline;overflow:visible;enable-background:accumulate"
           d="m 521.04908,538.09047 c -15.69566,0.0879 -29.15102,15.87745 -25.77414,31.44127 2.55162,14.38962 18.02238,25.44155 32.48403,21.46712 14.66886,-3.00493 24.56306,-19.73152 19.54028,-34.04816 -3.257,-11.23193 -14.52188,-19.50958 -26.25017,-18.86023 z"
           id="path5071"
           inkscape:connector-curvature="0" />
        <g
           id="g5050"
           transform="translate(73.66415,-3.5714505)">
          <path
             inkscape:connector-curvature="0"
             id="path5052"
             d="m 449.032,575.85687 c 0.8007,-0.0206 5.24792,-2.96489 5.6712,-3.24458 0.44434,-0.29377 5.31858,-3.51741 5.31858,-4.10547 0,-0.58806 -4.87446,-3.8113 -5.31858,-4.10549 -0.44404,-0.29378 -5.31665,-3.51882 -5.76149,-3.22504 -0.44433,0.29378 -0.44293,6.74238 -0.44293,7.33053 0,0.58806 -8.6e-4,7.0365 0.44293,7.33052 0.0208,0.0137 0.0509,0.0205 0.0902,0.0194 z m -12.47699,0 c 0.8007,-0.0206 5.24791,-2.96489 5.6712,-3.24458 0.44404,-0.29377 5.31857,-3.51741 5.31857,-4.10547 0,-0.58806 -4.87446,-3.8113 -5.31857,-4.10549 -0.44432,-0.29378 -5.31739,-3.51882 -5.7615,-3.22504 -0.44403,0.29378 -0.44293,6.74238 -0.44293,7.33053 0,0.58806 -8.6e-4,7.0365 0.44293,7.33052 0.0209,0.0137 0.0509,0.0205 0.0904,0.0194 z"
             style="fill:#ffffff;fill-rule:evenodd" />
          <path
             sodipodi:type="arc"
             style="color:#000000;fill:#1f1f1f;fill-opacity:1;fill-rule:nonzero;stroke:none;stroke-width:1px;marker:none;visibility:visible;display:inline;overflow:visible;enable-background:accumulate"
             id="path5054"
             sodipodi:cx="99.285713"
             sodipodi:cy="738.43359"
             sodipodi:rx="23.214285"
             sodipodi:ry="23.214285"
             d="m 122.5,738.43359 c 0,12.8209 -10.39339,23.21429 -23.214287,23.21429 -12.820895,0 -23.214285,-10.39339 -23.214285,-23.21429 0,-12.82089 10.39339,-23.21428 23.214285,-23.21428 12.820897,0 23.214287,10.39339 23.214287,23.21428 z"
             transform="matrix(0.9149043,0,0,-0.9149043,357.18485,1244.1032)" />
          <path
             transform="matrix(0.67013656,0,0,-0.67013656,381.48679,1063.3585)"
             d="m 122.5,738.43359 c 0,12.8209 -10.39339,23.21429 -23.214287,23.21429 -12.820895,0 -23.214285,-10.39339 -23.214285,-23.21429 0,-12.82089 10.39339,-23.21428 23.214285,-23.21428 12.820897,0 23.214287,10.39339 23.214287,23.21428 z"
             sodipodi:ry="23.214285"
             sodipodi:rx="23.214285"
             sodipodi:cy="738.43359"
             sodipodi:cx="99.285713"
             id="path5056"
             style="opacity:0.2;color:#000000;fill:#666666;fill-opacity:1;fill-rule:nonzero;stroke:none;stroke-width:1px;marker:none;visibility:visible;display:inline;overflow:visible;filter:url(#filter5041);enable-background:accumulate"
             sodipodi:type="arc" />
        </g>
        <path
           inkscape:connector-curvature="0"
           d="m 514.87357,571.93408 c -0.0659,0.007 -0.10657,-0.01 -0.13692,-0.0276 -0.48513,-0.27996 -0.49235,-6.41606 -0.49235,-6.97633 0,-0.56015 0.007,-6.69646 0.49235,-6.97635 0.48532,-0.28018 5.80768,2.78372 6.2927,3.06411 0.36679,0.21181 3.50062,2.00728 5.00668,3.11877 l 0,-4.13145 c 0,-0.85132 0.70821,-1.55938 1.55938,-1.55938 0.85152,0 1.53215,0.70821 1.53215,1.55938 l 0,9.84935 c 0,0.85131 -0.68063,1.55937 -1.53215,1.55937 -0.85131,0 -1.55938,-0.7082 -1.55938,-1.55937 l 0,-4.13146 c -1.50571,1.11149 -4.63952,2.90717 -5.00668,3.11877 -0.45491,0.26254 -5.16968,2.98336 -6.15578,3.09168"
           id="path10-4"
           style="fill:#ffffff;fill-rule:evenodd" />
      </g>
      <path
         transform="matrix(-0.9149043,0,0,-0.9149043,317.86624,1240.5318)"
         d="m 122.5,738.43359 c 0,12.8209 -10.39339,23.21429 -23.214287,23.21429 -12.820895,0 -23.214285,-10.39339 -23.214285,-23.21429 0,-12.82089 10.39339,-23.21428 23.214285,-23.21428 12.820897,0 23.214287,10.39339 23.214287,23.21428 z"
         sodipodi:ry="23.214285"
         sodipodi:rx="23.214285"
         sodipodi:cy="738.43359"
         sodipodi:cx="99.285713"
         id="path3153"
         style="color:#000000;fill:#000000;fill-opacity:1;fill-rule:nonzero;stroke:none;stroke-width:1px;marker:none;visibility:visible;display:inline;overflow:visible;enable-background:accumulate"
         sodipodi:type="arc" />
      <path
         inkscape:connector-curvature="0"
         d="m 233.84163,571.93398 c 0.0659,0.007 0.10658,-0.01 0.13692,-0.0275 0.48513,-0.27995 0.49235,-6.41603 0.49235,-6.97629 0,-0.56015 -0.007,-6.69642 -0.49235,-6.9763 -0.4853,-0.28019 -5.80764,2.78369 -6.29265,3.06408 -0.3668,0.21181 -3.50059,2.00728 -5.00666,3.11875 l 0,-4.13142 c 0,-0.85132 -0.70821,-1.55938 -1.55936,-1.55938 -0.85152,0 -1.53215,0.70821 -1.53215,1.55938 l 0,9.84929 c 0,0.85131 0.68063,1.55936 1.53215,1.55936 0.8513,0 1.55936,-0.7082 1.55936,-1.55936 l 0,-4.13144 c 1.50571,1.11148 4.6395,2.90715 5.00666,3.11876 0.45491,0.26254 5.16965,2.98333 6.15573,3.09166"
         id="path3155"
         style="fill:#ffffff;fill-rule:evenodd" />
      <text
         sodipodi:linespacing="125%"
         id="text3284"
         y="620.06378"
         x="327.33746"
         style="font-size:11.67526436px;font-style:normal;font-weight:normal;line-height:125%;letter-spacing:0px;word-spacing:0px;fill:#333333;fill-opacity:1;stroke:none;font-family:Sans"
         xml:space="preserve"><tspan
           y="620.06378"
           x="327.33746"
           id="tspan3286"
           sodipodi:role="line">0:00:00 / 0:00:0</tspan></text>
      <rect
         y="631.19"
         x="251.70125"
         height="4.6622882"
         width="245.32439"
         id="rect3282"
         style="color:#000000;fill:#282629;fill-opacity:1;fill-rule:nonzero;stroke:none;stroke-width:1px;marker:none;visibility:visible;display:inline;overflow:visible;enable-background:accumulate" />
      <path
         inkscape:connector-curvature="0"
         id="path4058"
         d="m 581.50204,623.73039 c -6.41016,0 -11.61568,4.02367 -11.61568,8.98152 0,4.95783 5.20552,8.9815 11.61568,8.9815 1.71368,0 3.32815,-0.27778 4.79226,-0.79341 l 6.37909,2.03116 1.206,0.38084 -0.60301,-1.1108 -2.34852,-4.25272 c 1.36925,-1.47337 2.15811,-3.28359 2.15811,-5.23657 0,-4.95785 -5.17379,-8.98152 -11.58393,-8.98152 z"
         style="color:#000000;fill:#333333;fill-opacity:1;fill-rule:nonzero;stroke:none;stroke-width:1px;marker:none;visibility:visible;display:inline;overflow:visible;enable-background:accumulate" />
      <path
         style="fill:#333333;fill-opacity:1"
         id="path104"
         d="m 628.53077,623.73026 c -0.415,0 -0.70726,0.30182 -0.74995,0.67047 l -0.23924,2.07122 c -0.48276,0.14372 -0.94381,0.33654 -1.37931,0.57113 l -1.63373,-1.29539 c -0.29077,-0.23041 -0.7108,-0.23733 -1.00439,0.0561 l -1.56047,1.56039 c -0.29344,0.29347 -0.27809,0.70729 -0.056,1.00441 l 1.25437,1.67684 c -0.46379,1.06485 -0.5702,1.36458 -0.56899,1.36014 l -2.07125,0.23915 c -0.36852,0.0431 -0.67046,0.33511 -0.67046,0.74998 l 0,2.20724 c 0,0.415 0.30315,0.69475 0.67046,0.74802 l 2.07991,0.30168 c 0.14396,0.47675 0.33626,0.9317 0.56899,1.36223 l -1.28457,1.62084 c -0.23038,0.29085 -0.23731,0.71081 0.056,1.0044 l 1.56047,1.56053 c 0.29343,0.29346 0.70492,0.27806 1.00224,0.0561 l 1.67039,-1.24787 c 0.43194,0.23145 0.8884,0.42231 1.36649,0.5646 l 0.23925,2.06913 c 0.0427,0.36852 0.33503,0.67047 0.74995,0.67047 l 2.2072,0 c 0.415,0 0.69473,-0.30312 0.74799,-0.67047 l 0.30175,-2.08192 c 0.46478,-0.14138 0.90896,-0.32793 1.32984,-0.55364 l 1.68751,1.26093 c 0.29719,0.22205 0.71078,0.23733 1.00439,-0.0561 l 1.56046,-1.56039 c 0.29345,-0.29346 0.28644,-0.71368 0.056,-1.00441 l -1.3041,-1.64459 c 0.22966,-0.42675 0.41999,-0.87713 0.56254,-1.34917 l 2.07755,-0.30182 c 0.36715,-0.0535 0.67047,-0.33498 0.67047,-0.74985 l 0,-2.20724 c 0,-0.415 -0.30179,-0.70533 -0.67047,-0.74801 l -2.07555,-0.24138 c -0.14095,-0.46931 -0.32693,-0.91812 -0.55377,-1.34291 l 1.26949,-1.70268 c 0.22206,-0.29725 0.23733,-0.71081 -0.056,-1.00441 l -1.56046,-1.56039 c -0.29345,-0.29346 -0.71158,-0.28655 -1.00224,-0.0561 l -1.65304,1.31054 c -0.42472,-0.22937 -0.87301,-0.41957 -1.34288,-0.56252 l -0.30175,-2.08426 c -0.0531,-0.36723 -0.33288,-0.67048 -0.74799,-0.67048 z m 1.11213,6.70539 c 1.70452,0 3.08639,1.38208 3.08639,3.08633 0,1.70451 -1.38203,3.08645 -3.08639,3.08645 -1.7045,0 -3.08637,-1.38207 -3.08637,-3.08645 0,-1.70452 1.38203,-3.08633 3.08637,-3.08633"
         inkscape:connector-curvature="0" />
      <path
         id="path3069"
         d="m 118.6215,623.73074 c -0.1253,3.9e-4 -0.2618,0.0248 -0.4081,0.0757 -0.2745,0.0966 -0.2831,0.10574 -3.7679,3.52991 l -1.7219,1.69381 0,8.96838 1.5005,1.4741 c 3.5279,3.46777 3.6941,3.62612 3.9198,3.73643 l 0,0 c 0.4023,0.1953 0.8069,0.10835 1.056,-0.22636 0.2542,-0.34268 0.2396,0.25169 0.2529,-9.41458 0.01,-7.91384 0,-8.97321 -0.058,-9.18495 -0.1249,-0.42962 -0.399,-0.65416 -0.775,-0.65272 z m 8.8032,0.90728 -1.5782,1.68389 c 1.9204,1.8006 3.1184,4.35939 3.1184,7.19859 0,2.83868 -1.1991,5.39722 -3.1184,7.19677 l 1.5782,1.68728 c 2.3691,-2.22408 3.8603,-5.37946 3.8603,-8.88574 0,-3.50524 -1.4909,-6.65788 -3.8603,-8.88079 z m -2.773,2.95134 -1.5782,1.70556 c 1.1256,1.05976 1.831,2.5584 1.831,4.22558 0,1.66731 -0.7049,3.16726 -1.831,4.22558 l 1.5782,1.70373 c 1.582,-1.48141 2.5747,-3.58761 2.5747,-5.92774 0,-2.33948 -0.992,-4.44712 -2.5747,-5.92931 l 0,0 z m -15.3407,1.64603 c -0.4243,0 -0.7651,0.34072 -0.7651,0.76512 l 0,7.04155 c 0,0.42427 0.3408,0.76512 0.7651,0.76512 l 2.8672,0 0,-8.57179 -2.8672,0 z m 12.4933,1.27581 -1.5434,1.72188 c 0.3533,0.31852 0.5817,0.77256 0.5817,1.28573 0,0.51316 -0.2284,0.97033 -0.5817,1.28899 l 1.5418,1.722 c 0.8258,-0.74266 1.36,-1.81025 1.36,-3.0093 0,-1.19761 -0.5339,-2.26624 -1.3584,-3.0093 z"
         style="color:#000000;fill:#333333;fill-opacity:1"
         inkscape:connector-curvature="0" />
      <rect
         style="color:#000000;fill:#282629;fill-opacity:1;fill-rule:nonzero;stroke:none;stroke-width:1px;marker:none;visibility:visible;display:inline;overflow:visible;enable-background:accumulate"
         id="rect4167"
         width="64.427605"
         height="4.6622882"
         x="151.87749"
         y="631.19" />
      <path
         style="fill:#333333;fill-opacity:1"
         d="m 619.85139,570.48845 1.03673,6.72535 1.79072,-1.79211 3.5575,3.5561 2.12129,-2.12129 -3.55611,-3.55608 1.77383,-1.77665 -6.72396,-1.03532 z m 19.57967,0.001 -6.72255,1.03391 1.79211,1.79353 -3.55751,3.55612 2.1227,2.12268 3.5561,-3.55751 1.77242,1.77384 1.03673,-6.72257 z m -13.21161,11.07344 -3.55749,3.55892 -1.77384,-1.77524 -1.03673,6.72115 6.72396,-1.03392 -1.79212,-1.79211 3.55751,-3.55751 -2.12129,-2.12129 z m 6.82807,0.0168 -2.12129,2.12129 3.55751,3.5575 -1.77383,1.77524 6.72256,1.03532 -1.03532,-6.72256 -1.79071,1.79072 -3.55892,-3.55751 z"
         id="path10-44"
         inkscape:connector-curvature="0" />
      <path
         inkscape:connector-curvature="0"
         id="path4105"
         d="m 126.1276,588.07981 0,-1.98893 -1.0749,-0.20164 c -1.0731,-0.20132 -4.4489,-2.19035 -4.8678,-2.86814 -0.1231,-0.19927 0.077,-0.67589 0.4522,-1.07485 l 0.6734,-0.71681 1.4766,1.06082 c 0.8121,0.58346 1.896,1.1811 2.4085,1.32811 l 0.932,0.26728 0,-1.66592 0,-1.66593 2.938,2.36305 2.9379,2.36305 -1.0944,0.94606 c -0.6019,0.52032 -1.924,1.59782 -2.938,2.39442 l -1.8435,1.44836 0,-1.98893 z m -18.3001,-2.28504 0,-1.17181 1.8121,-0.16432 c 2.9565,-0.26808 4.9153,-1.38292 8.3798,-4.76924 3.2997,-3.2252 4.8342,-4.33184 6.8397,-4.93273 l 1.2685,-0.38005 0,-1.94393 0,-1.94395 2.938,2.36305 2.9379,2.36305 -1.0944,0.94606 c -0.6019,0.52034 -1.9171,1.59236 -2.9225,2.38228 l -1.8281,1.43621 -0.092,-1.6805 -0.092,-1.68051 -1.6379,0.76037 c -1.1009,0.51105 -2.701,1.79541 -4.88,3.91704 -4.0498,3.94304 -5.9652,4.97655 -10.1809,5.49322 l -1.4488,0.17757 0,-1.17181 z m 7.3201,-7.52825 c -1.4891,-1.13469 -4.63,-2.26832 -6.2847,-2.26832 -0.996,0 -1.0354,-0.0443 -1.0354,-1.16171 l 0,-1.16171 2.2113,0.23509 c 2.3951,0.25465 5.9889,1.82013 7.2432,3.15521 0.6351,0.67602 0.641,0.73808 0.144,1.4967 -0.2852,0.43529 -0.6057,0.78224 -0.7123,0.77102 -0.1065,-0.0113 -0.8113,-0.49104 -1.5661,-1.06628 z"
         style="fill:#333333;fill-opacity:1" />
      <path
         inkscape:connector-curvature="0"
         id="path4118"
         d="m 149.90115,588.0768 c -1.35945,-1.09611 -2.61025,-2.13146 -2.77955,-2.30078 -0.2119,-0.21191 0.5584,-1.0192 2.4717,-2.59041 l 2.77956,-2.28258 0.0896,1.83639 0.0896,1.83638 5.56922,-0.12669 c 4.4785,-0.10186 5.77807,-0.22744 6.6357,-0.64119 1.07096,-0.51668 2.06074,-2.03446 2.06074,-3.16004 0,-0.30828 0.55666,-1.00141 1.23702,-1.54026 l 1.23702,-0.97975 -0.15504,1.93143 c -0.17455,2.17449 -1.00957,4.07507 -2.20273,5.01361 -1.52286,1.19788 -3.43378,1.51669 -9.09107,1.51669 l -5.2927,0 -0.0887,1.74006 -0.0887,1.74006 -2.47172,-1.99292 z m -2.37885,-7.46584 c 0.1745,-2.17449 1.0096,-4.07506 2.20273,-5.01361 1.52387,-1.19867 3.43302,-1.51669 9.10527,-1.51669 l 5.30692,0 0,-1.79647 0,-1.79647 2.8294,2.27573 c 1.55617,1.25165 2.8294,2.32147 2.8294,2.37738 0,0.056 -1.23972,1.11972 -2.75494,2.36402 l -2.75495,2.26237 -0.0896,-1.83637 -0.0896,-1.83639 -5.56921,0.12668 c -4.53506,0.10316 -5.77233,0.22464 -6.66307,0.65419 -1.10946,0.53503 -2.03338,1.94701 -2.03338,3.10749 0,0.34798 -0.51969,1.0117 -1.23701,1.57982 l -1.23706,0.97974 0.1551,-1.93142 z"
         style="fill:#333333;fill-opacity:1" />
      <path
         inkscape:connector-curvature="0"
         id="rect4136"
         d="m 567.40035,570.48772 0,3.9572 4.07959,0 0,-3.9572 -4.07959,0 z m 7.13927,0 0,3.9572 21.82578,0 0,-3.9572 -21.82578,0 z m -7.13927,7.8328 0,3.95719 4.07959,0 0,-3.95719 -4.07959,0 z m 7.13927,0 0,3.95719 21.82578,0 0,-3.95719 -21.82578,0 z m -7.13927,7.8328 0,3.9164 4.07959,0 0,-3.9164 -4.07959,0 z m 7.13927,0 0,3.9164 21.82578,0 0,-3.9164 -21.82578,0 z"
         style="color:#000000;fill:#333333;fill-opacity:1;fill-rule:nonzero;stroke:none;stroke-width:1px;marker:none;visibility:visible;display:inline;overflow:visible;enable-background:accumulate" />
      <g
         id="g4064">
        <path
           transform="matrix(-0.9149043,0,0,-0.9149043,391.53039,1240.5318)"
           d="m 122.5,738.43359 c 0,12.8209 -10.39339,23.21429 -23.214287,23.21429 -12.820895,0 -23.214285,-10.39339 -23.214285,-23.21429 0,-12.82089 10.39339,-23.21428 23.214285,-23.21428 12.820897,0 23.214287,10.39339 23.214287,23.21428 z"
           sodipodi:ry="23.214285"
           sodipodi:rx="23.214285"
           sodipodi:cy="738.43359"
           sodipodi:cx="99.285713"
           id="path3147"
           style="color:#000000;fill:#000000;fill-opacity:1;fill-rule:nonzero;stroke:none;stroke-width:1px;marker:none;visibility:visible;display:inline;overflow:visible;enable-background:accumulate"
           sodipodi:type="arc" />
        <path
           style="fill:#ffffff;fill-rule:evenodd"
           d="m 299.68323,572.28539 c -0.80069,-0.0207 -5.24791,-2.96489 -5.67118,-3.24458 -0.44434,-0.29376 -5.31859,-3.51742 -5.31859,-4.10547 0,-0.58807 4.87447,-3.8113 5.31859,-4.10549 0.44402,-0.2938 5.31665,-3.51881 5.76149,-3.22504 0.44433,0.29376 0.44292,6.74238 0.44292,7.33053 0,0.58805 8.6e-4,7.03649 -0.44292,7.33053 -0.0207,0.0137 -0.0509,0.0206 -0.0903,0.0195 z m 12.477,0 c -0.80071,-0.0207 -5.24791,-2.96489 -5.6712,-3.24458 -0.44405,-0.29376 -5.31859,-3.51742 -5.31859,-4.10547 0,-0.58807 4.87447,-3.8113 5.31859,-4.10549 0.44433,-0.2938 5.31739,-3.51881 5.76149,-3.22504 0.44404,0.29376 0.44294,6.74238 0.44294,7.33053 0,0.58805 8.6e-4,7.03649 -0.44294,7.33053 -0.0207,0.0137 -0.0509,0.0206 -0.0903,0.0195 z"
           id="path3149"
           inkscape:connector-curvature="0" />
        <path
           style="color:#000000;fill:#ffffff;fill-opacity:1;fill-rule:nonzero;stroke:none;stroke-width:1px;marker:none;visibility:visible;display:inline;overflow:visible;enable-background:accumulate"
           d="m 301.25134,538.09049 c 15.69566,0.0879 29.15102,15.87745 25.77414,31.44127 -2.55162,14.38962 -18.02238,25.44155 -32.48403,21.46712 -14.66886,-3.00493 -24.56306,-19.73152 -19.54028,-34.04816 3.257,-11.23193 14.52188,-19.50958 26.25017,-18.86023 z"
           id="path5073"
           inkscape:connector-curvature="0" />
        <path
           transform="matrix(-0.9149043,0,0,-0.9149043,391.45142,1240.5318)"
           d="m 122.5,738.43359 c 0,12.8209 -10.39339,23.21429 -23.214287,23.21429 -12.820895,0 -23.214285,-10.39339 -23.214285,-23.21429 0,-12.82089 10.39339,-23.21428 23.214285,-23.21428 12.820897,0 23.214287,10.39339 23.214287,23.21428 z"
           sodipodi:ry="23.214285"
           sodipodi:rx="23.214285"
           sodipodi:cy="738.43359"
           sodipodi:cx="99.285713"
           id="path5075"
           style="color:#000000;fill:#1f1f1f;fill-opacity:1;fill-rule:nonzero;stroke:none;stroke-width:1px;marker:none;visibility:visible;display:inline;overflow:visible;enable-background:accumulate"
           sodipodi:type="arc" />
        <path
           sodipodi:type="arc"
           style="opacity:0.2;color:#000000;fill:#666666;fill-opacity:1;fill-rule:nonzero;stroke:none;stroke-width:1px;marker:none;visibility:visible;display:inline;overflow:visible;filter:url(#filter5041);enable-background:accumulate"
           id="path5077"
           sodipodi:cx="99.285713"
           sodipodi:cy="738.43359"
           sodipodi:rx="23.214285"
           sodipodi:ry="23.214285"
           d="m 122.5,738.43359 c 0,12.8209 -10.39339,23.21429 -23.214287,23.21429 -12.820895,0 -23.214285,-10.39339 -23.214285,-23.21429 0,-12.82089 10.39339,-23.21428 23.214285,-23.21428 12.820897,0 23.214287,10.39339 23.214287,23.21428 z"
           transform="matrix(-0.67013656,0,0,-0.67013656,367.14948,1059.7871)" />
        <path
           style="fill:#ffffff;fill-rule:evenodd"
           d="m 299.60427,572.28543 c -0.8007,-0.0206 -5.24792,-2.96489 -5.6712,-3.24458 -0.44434,-0.29377 -5.31858,-3.51741 -5.31858,-4.10547 0,-0.58806 4.87446,-3.8113 5.31858,-4.10549 0.44404,-0.29378 5.31665,-3.51882 5.76149,-3.22504 0.44433,0.29378 0.44293,6.74238 0.44293,7.33053 0,0.58806 8.6e-4,7.0365 -0.44293,7.33052 -0.0208,0.0137 -0.0509,0.0205 -0.0902,0.0194 z m 12.47699,0 c -0.8007,-0.0206 -5.24791,-2.96489 -5.6712,-3.24458 -0.44404,-0.29377 -5.31857,-3.51741 -5.31857,-4.10547 0,-0.58806 4.87446,-3.8113 5.31857,-4.10549 0.44432,-0.29378 5.31739,-3.51882 5.7615,-3.22504 0.44403,0.29378 0.44293,6.74238 0.44293,7.33053 0,0.58806 8.6e-4,7.0365 -0.44293,7.33052 -0.0209,0.0137 -0.0509,0.0205 -0.0904,0.0194 z"
           id="path5079"
           inkscape:connector-curvature="0" />
      </g>
      <path
         transform="matrix(-0.9149043,0,0,-0.9149043,317.78727,1240.5318)"
         d="m 122.5,738.43359 c 0,12.8209 -10.39339,23.21429 -23.214287,23.21429 -12.820895,0 -23.214285,-10.39339 -23.214285,-23.21429 0,-12.82089 10.39339,-23.21428 23.214285,-23.21428 12.820897,0 23.214287,10.39339 23.214287,23.21428 z"
         sodipodi:ry="23.214285"
         sodipodi:rx="23.214285"
         sodipodi:cy="738.43359"
         sodipodi:cx="99.285713"
         id="path5081"
         style="color:#000000;fill:#000000;fill-opacity:1;fill-rule:nonzero;stroke:none;stroke-width:1px;marker:none;visibility:visible;display:inline;overflow:visible;enable-background:accumulate"
         sodipodi:type="arc" />
      <path
         style="color:#000000;fill:#ffffff;fill-opacity:1;fill-rule:nonzero;stroke:none;stroke-width:1px;marker:none;visibility:visible;display:inline;overflow:visible;enable-background:accumulate"
         d="m 227.58719,538.09046 c 15.69566,0.0879 29.15102,15.87745 25.77414,31.44127 -2.55162,14.38962 -18.02238,25.44155 -32.48403,21.46712 -14.66886,-3.00493 -24.56306,-19.73152 -19.54028,-34.04816 3.257,-11.23193 14.52188,-19.50958 26.25017,-18.86023 z"
         id="path5083"
         inkscape:connector-curvature="0" />
      <g
         id="g5085"
         transform="matrix(-1,0,0,1,674.97212,-3.5714642)">
        <path
           inkscape:connector-curvature="0"
           id="path5087"
           d="m 449.032,575.85687 c 0.8007,-0.0206 5.24792,-2.96489 5.6712,-3.24458 0.44434,-0.29377 5.31858,-3.51741 5.31858,-4.10547 0,-0.58806 -4.87446,-3.8113 -5.31858,-4.10549 -0.44404,-0.29378 -5.31665,-3.51882 -5.76149,-3.22504 -0.44433,0.29378 -0.44293,6.74238 -0.44293,7.33053 0,0.58806 -8.6e-4,7.0365 0.44293,7.33052 0.0208,0.0137 0.0509,0.0205 0.0902,0.0194 z m -12.47699,0 c 0.8007,-0.0206 5.24791,-2.96489 5.6712,-3.24458 0.44404,-0.29377 5.31857,-3.51741 5.31857,-4.10547 0,-0.58806 -4.87446,-3.8113 -5.31857,-4.10549 -0.44432,-0.29378 -5.31739,-3.51882 -5.7615,-3.22504 -0.44403,0.29378 -0.44293,6.74238 -0.44293,7.33053 0,0.58806 -8.6e-4,7.0365 0.44293,7.33052 0.0209,0.0137 0.0509,0.0205 0.0904,0.0194 z"
           style="fill:#ffffff;fill-rule:evenodd" />
        <path
           sodipodi:type="arc"
           style="color:#000000;fill:#1f1f1f;fill-opacity:1;fill-rule:nonzero;stroke:none;stroke-width:1px;marker:none;visibility:visible;display:inline;overflow:visible;enable-background:accumulate"
           id="path5089"
           sodipodi:cx="99.285713"
           sodipodi:cy="738.43359"
           sodipodi:rx="23.214285"
           sodipodi:ry="23.214285"
           d="m 122.5,738.43359 c 0,12.8209 -10.39339,23.21429 -23.214287,23.21429 -12.820895,0 -23.214285,-10.39339 -23.214285,-23.21429 0,-12.82089 10.39339,-23.21428 23.214285,-23.21428 12.820897,0 23.214287,10.39339 23.214287,23.21428 z"
           transform="matrix(0.9149043,0,0,-0.9149043,357.18485,1244.1032)" />
        <path
           transform="matrix(0.67013656,0,0,-0.67013656,381.48679,1063.3585)"
           d="m 122.5,738.43359 c 0,12.8209 -10.39339,23.21429 -23.214287,23.21429 -12.820895,0 -23.214285,-10.39339 -23.214285,-23.21429 0,-12.82089 10.39339,-23.21428 23.214285,-23.21428 12.820897,0 23.214287,10.39339 23.214287,23.21428 z"
           sodipodi:ry="23.214285"
           sodipodi:rx="23.214285"
           sodipodi:cy="738.43359"
           sodipodi:cx="99.285713"
           id="path5091"
           style="opacity:0.2;color:#000000;fill:#666666;fill-opacity:1;fill-rule:nonzero;stroke:none;stroke-width:1px;marker:none;visibility:visible;display:inline;overflow:visible;filter:url(#filter5041);enable-background:accumulate"
           sodipodi:type="arc" />
      </g>
      <path
         inkscape:connector-curvature="0"
         d="m 233.7627,571.93407 c 0.0659,0.007 0.10657,-0.01 0.13692,-0.0276 0.48513,-0.27996 0.49235,-6.41606 0.49235,-6.97633 0,-0.56015 -0.007,-6.69646 -0.49235,-6.97635 -0.48532,-0.28018 -5.80768,2.78372 -6.2927,3.06411 -0.36679,0.21181 -3.50062,2.00728 -5.00668,3.11877 l 0,-4.13145 c 0,-0.85132 -0.70821,-1.55938 -1.55938,-1.55938 -0.85152,0 -1.53215,0.70821 -1.53215,1.55938 l 0,9.84935 c 0,0.85131 0.68063,1.55937 1.53215,1.55937 0.85131,0 1.55938,-0.7082 1.55938,-1.55937 l 0,-4.13146 c 1.50571,1.11149 4.63952,2.90717 5.00668,3.11877 0.45491,0.26254 5.16968,2.98336 6.15578,3.09168"
         id="path5093"
         style="fill:#ffffff;fill-rule:evenodd" />
      <rect
         y="631.19"
         x="151.87749"
         height="4.6622882"
         width="40.183945"
         id="rect5142"
         style="color:#000000;fill:#0078ad;fill-opacity:1;fill-rule:nonzero;stroke:none;stroke-width:1px;marker:none;visibility:visible;display:inline;overflow:visible;enable-background:accumulate" />
      <rect
         style="color:#000000;fill:#0078ad;fill-opacity:1;fill-rule:nonzero;stroke:none;stroke-width:1px;marker:none;visibility:visible;display:inline;overflow:visible;enable-background:accumulate"
         id="rect5144"
         width="65.517235"
         height="4.6622882"
         x="251.70125"
         y="631.19" />
    </g>
  </g>
</svg>
