<?xml version="1.0" encoding="UTF-8" standalone="no"?>
<!-- Created with Inkscape (http://www.inkscape.org/) -->

<svg
   xmlns:dc="http://purl.org/dc/elements/1.1/"
   xmlns:cc="http://creativecommons.org/ns#"
   xmlns:rdf="http://www.w3.org/1999/02/22-rdf-syntax-ns#"
   xmlns:svg="http://www.w3.org/2000/svg"
   xmlns="http://www.w3.org/2000/svg"
   xmlns:sodipodi="http://sodipodi.sourceforge.net/DTD/sodipodi-0.dtd"
   xmlns:inkscape="http://www.inkscape.org/namespaces/inkscape"
   width="32"
   height="32"
   viewBox="0 0 32 32.000001"
   id="svg7408"
   version="1.1"
   inkscape:version="0.91 r13725"
   sodipodi:docname="tool-icons.svg"
   inkscape:export-filename="/home/xylosper/dev/bomi/src/bomi/img/repeat.png"
   inkscape:export-xdpi="90"
   inkscape:export-ydpi="90">
  <defs
     id="defs7410" />
  <sodipodi:namedview
     id="base"
     pagecolor="#4c4c4c"
     bordercolor="#666666"
     borderopacity="1.0"
     inkscape:pageopacity="0"
     inkscape:pageshadow="2"
     inkscape:zoom="11.2"
     inkscape:cx="35.671058"
     inkscape:cy="2.7449792"
     inkscape:document-units="px"
     inkscape:current-layer="layer1"
     showgrid="true"
     inkscape:window-width="1920"
     inkscape:window-height="1021"
     inkscape:window-x="-4"
     inkscape:window-y="0"
     inkscape:window-maximized="1"
     units="px"
     showguides="true"
     inkscape:guide-bbox="true">
    <sodipodi:guide
       position="15,27.000001"
       orientation="0,1"
       id="guide8016" />
    <inkscape:grid
       type="xygrid"
       id="grid8018" />
    <sodipodi:guide
       position="7,5.0000002"
       orientation="0,1"
       id="guide8020" />
  </sodipodi:namedview>
  <metadata
     id="metadata7413">
    <rdf:RDF>
      <cc:Work
         rdf:about="">
        <dc:format>image/svg+xml</dc:format>
        <dc:type
           rdf:resource="http://purl.org/dc/dcmitype/StillImage" />
        <dc:title></dc:title>
      </cc:Work>
    </rdf:RDF>
  </metadata>
  <g
     inkscape:label="Layer 1"
     inkscape:groupmode="layer"
     id="layer1"
     transform="translate(0,-1020.3622)">
    <path
       inkscape:connector-curvature="0"
       id="path8581"
       d="m 57.976712,1012.3792 a 15.000006,15.000066 0 0 0 -15,15 15.000006,15.000066 0 0 0 15,15 15.000006,15.000066 0 0 0 15,-15 15.000006,15.000066 0 0 0 -15,-15 z m -6.625034,6.7008 c 0.426744,0 0.851614,0.1622 1.1786,0.4912 l 5.446434,5.4463 5.446397,-5.4463 c 0.653938,-0.6541 1.70766,-0.6541 2.361597,0 0.653937,0.6537 0.653937,1.7076 0,2.3613 l -5.446397,5.4467 5.446397,5.4463 c 0.653937,0.6541 0.653937,1.7076 0,2.3617 -0.653937,0.6541 -1.707659,0.6541 -2.361597,0 l -5.446397,-5.4463 -5.446434,5.4463 c -0.653972,0.6541 -1.707623,0.6541 -2.361632,0 -0.653972,-0.6541 -0.653972,-1.7076 0,-2.3617 l 5.446471,-5.4463 -5.446471,-5.4467 c -0.653972,-0.6537 -0.653972,-1.7076 0,-2.3613 0.326878,-0.3279 0.756289,-0.4912 1.183032,-0.4912 z"
       style="color:#000000;display:inline;overflow:visible;visibility:visible;fill:#ffffff;fill-opacity:1;fill-rule:nonzero;stroke:none;stroke-width:1px;stroke-linecap:butt;stroke-linejoin:miter;stroke-opacity:1;marker:none;enable-background:accumulate" />
    <path
       style="fill:#ffffff"
       d="m 82.451677,1045.291 c -1.075911,0 -3.495875,2.7426 -5.670251,6.5083 -1.06197,1.8392 -1.882458,3.6067 -2.382676,5.0433 -1.568566,-0.7237 -2.851626,-0.9723 -3.10442,-0.5342 -0.133296,0.2305 0.03999,0.612 0.43948,1.0684 -0.134377,-0.043 -0.478279,-0.1584 -0.478279,-0.1584 l -0.03675,0.036 c -3.426525,0.5587 -5.520995,3.1821 -7.193352,6.1981 -0.518448,1.5603 -1.423813,2.6967 -2.527068,3.8476 1.14137,0.7328 2.046592,1.4374 2.371941,2.0726 l 1.075011,-1.5383 -0.06448,2.3074 c 1.043236,-0.043 1.282304,0.6261 1.869993,0.9865 l 1.419706,-2.3741 -0.312344,3.0614 c 1.088522,0.3062 2.130172,0.7317 2.936394,1.743 l 1.540358,-2.5853 -0.527815,3.0269 c 1.621451,0.4374 2.810411,0.2882 4.183718,1.2904 -0.03999,-1.1398 -0.03603,-2.847 0.902662,-4.2979 2.06356,-3.1908 3.044291,-7.5066 1.290482,-10.0544 0.379136,0.036 0.642774,-0.036 0.743249,-0.2126 0.253982,-0.4398 -0.609485,-1.4353 -2.031569,-2.4364 0.993232,-1.1513 2.112268,-2.7448 3.173372,-4.5824 2.35818,-4.0846 3.533378,-7.8198 2.626141,-8.3435 -0.07097,-0.04 -0.15239,-0.061 -0.243535,-0.061 z"
       id="path8653"
       inkscape:connector-curvature="0" />
    <path
       d="m -1.768027,1057.8806 c -2.967511,0 -5.356973,2.3893 -5.356973,5.3571 l 0,10.7139 c 0,2.9676 2.389332,5.357 5.356973,5.357 l 3.281348,0 c -0.02185,-0.1662 -0.06686,-0.2949 -0.06686,-0.4687 l 0,-3.8168 -1.07149702,0 c -1.78081398,0 -3.21436298,-1.4336 -3.21436298,-3.2145 l 0,-6.4286 c 0,-1.7804 1.433549,-3.2141 3.21436298,-3.2141 l 15.00019402,0 c 1.780687,0 3.214364,1.4337 3.214364,3.2141 l 0,6.4286 c 0,1.7809 -1.433677,3.2145 -3.214364,3.2145 l -1.071626,0 0,-4.2858 -8.571336,6.4284 8.571336,6.4286 0,-4.2859 3.214493,0 c 2.967639,0 5.356973,-2.3892 5.356973,-5.3568 l 0,-10.7141 c 0,-2.9676 -2.389334,-5.3571 -5.356973,-5.3571"
       id="path8204"
       style="fill:#ffffff"
       inkscape:connector-curvature="0" />
    <path
       d="m -52.929509,1039.0411 0,4.2858 -2.209722,0 c -7.658752,0 -8.865761,5.3696 -13.392046,9.2403 -1.09374,0.9356 -2.117024,1.4734 -3.749856,1.4734 l -2.07601,0 0,4.2853 2.07601,0 c 2.692243,0 4.927679,-1.0811 6.562053,-2.5443 3.841526,-3.439 5.509586,-8.1696 10.580105,-8.1696 l 2.209851,0 0,4.2857 8.571081,-6.4282 m -8.571081,6.4282 0,4.2856 -2.209851,0 c -2.407719,0 -4.020364,-1.1226 -5.490299,-2.6114 -0.821172,0.9946 -1.756772,2.0367 -2.879182,3.147 1.932525,2.1002 4.166291,3.7499 8.370381,3.7499 l 2.209723,0 0,4.2859 8.571209,-6.4286 m -29.999357,-12.8562 0,4.2855 2.076009,0 c 1.101198,0 1.923014,0.2904 2.678359,0.7364 1.030741,-0.958 1.92417,-2.0697 2.879182,-3.2143 -1.508504,-1.0555 -3.366204,-1.8076 -5.557541,-1.8076"
       id="path8206"
       style="fill:#ffffff"
       inkscape:connector-curvature="0" />
  </g>
</svg>
